<?xml version="1.0" encoding="utf-8"?>
<svg viewBox="0 0 500 500" xmlns="http://www.w3.org/2000/svg">
  <g transform="matrix(1, 0, 0, 1, -439.216553, -671.143982)">
    <path d="M 761.28 506.88 L 766.08 507.84 L 761.28 508.8 L 761.28 506.88 Z " style="fill: rgba(213, 208, 76, 1); stroke: rgba(213, 208, 76, 1);"/>
    <path d="M 759.36 512.64 Q 774.528 510.912 777.6 521.28 L 783.36 536.64 L 783.36 548.16 L 781.44 548.16 Q 782.88 525.6 770.88 516.48 L 759.36 514.56 L 752.64 519.36 L 750.72 523.2 L 750.72 546.24 L 756.48 569.28 L 754.56 569.28 L 748.8 546.24 L 748.8 523.2 L 755.52 514.56 L 759.36 512.64 Z " style="fill: rgba(213, 208, 76, 1); stroke: rgba(213, 208, 76, 1);"/>
    <path d="M 780.48 518.4 L 785.28 527.04 L 783.36 527.04 L 780.48 518.4 Z " style="fill: rgba(213, 208, 76, 1); stroke: rgba(213, 208, 76, 1);"/>
    <path d="M 744 526.08 L 744.96 542.4 L 743.04 542.4 L 744 526.08 Z " style="fill: rgba(213, 208, 76, 1); stroke: rgba(213, 208, 76, 1);"/>
    <path d="M 786.24 529.92 L 787.2 538.56 L 785.28 538.56 L 786.24 529.92 Z " style="fill: rgba(213, 208, 76, 1); stroke: rgba(213, 208, 76, 1);"/>
    <path d="M 937.92 533.76 Q 948 531.36 950.4 536.64 L 952.32 542.4 L 950.4 542.4 L 945.6 535.68 Q 936 537.6 937.92 533.76 Z " style="fill: rgba(213, 208, 76, 1); stroke: rgba(213, 208, 76, 1);"/>
    <path d="M 934.08 535.68 L 931.2 540.48 L 926.4 552.96 L 925.44 548.16 L 934.08 535.68 Z " style="fill: rgba(213, 208, 76, 1); stroke: rgba(213, 208, 76, 1);"/>
    <path d="M 926.4 537.6 L 924.48 541.44 L 926.4 537.6 Z " style="fill: rgba(213, 208, 76, 1); stroke: rgba(213, 208, 76, 1);"/>
    <path d="M 788.16 541.44 L 789.12 553.92 L 787.2 553.92 L 788.16 541.44 Z " style="fill: rgba(213, 208, 76, 1); stroke: rgba(213, 208, 76, 1);"/>
    <path d="M 578.88 545.28 L 583.68 546.24 L 578.88 547.2 L 578.88 545.28 Z " style="fill: rgba(213, 208, 76, 1); stroke: rgba(213, 208, 76, 1);"/>
    <path d="M 745.92 545.28 L 748.8 559.68 L 746.88 559.68 L 745.92 545.28 Z " style="fill: rgba(213, 208, 76, 1); stroke: rgba(213, 208, 76, 1);"/>
    <path d="M 953.28 545.28 L 954.24 559.68 L 937.92 610.56 L 936.96 607.68 L 948.48 573.12 L 953.28 545.28 Z " style="fill: rgba(213, 208, 76, 1); stroke: rgba(213, 208, 76, 1);"/>
    <path d="M 594.24 549.12 L 598.08 554.88 L 594.24 549.12 Z " style="fill: rgba(213, 208, 76, 1); stroke: rgba(213, 208, 76, 1);"/>
    <path d="M 920.64 549.12 L 921.6 555.84 L 919.68 555.84 L 920.64 549.12 Z " style="fill: rgba(213, 208, 76, 1); stroke: rgba(213, 208, 76, 1);"/>
    <path d="M 576.96 551.04 Q 597.387 549.813 602.88 563.52 Q 626.688 612.672 643.2 669.12 L 641.28 669.12 L 608.64 578.88 Q 604.48 564.8 594.24 556.8 Q 589.12 551.36 576.96 552.96 L 572.16 554.88 Q 566.4 561.12 568.32 576.96 Q 603.36 653.28 651.84 716.16 L 652.8 703.68 L 650.88 697.92 L 652.8 697.92 L 656.64 717.12 L 651.84 720 L 618.24 672.96 L 618.24 669.12 L 585.6 617.28 L 570.24 588.48 Q 564.72 579.6 566.4 563.52 L 573.12 552.96 L 576.96 551.04 Z " style="fill: rgba(213, 208, 76, 1); stroke: rgba(213, 208, 76, 1);"/>
    <path d="M 784.32 551.04 L 787.2 567.36 L 787.2 584.64 L 785.28 584.64 L 784.32 551.04 Z " style="fill: rgba(213, 208, 76, 1); stroke: rgba(213, 208, 76, 1);"/>
    <path d="M 924.48 556.8 L 925.44 563.52 L 923.52 563.52 L 924.48 556.8 Z " style="fill: rgba(213, 208, 76, 1); stroke: rgba(213, 208, 76, 1);"/>
    <path d="M 603.84 558.72 L 605.76 562.56 L 603.84 558.72 Z " style="fill: rgba(213, 208, 76, 1); stroke: rgba(213, 208, 76, 1);"/>
    <path d="M 790.08 558.72 L 791.04 573.12 L 789.12 573.12 L 790.08 558.72 Z " style="fill: rgba(213, 208, 76, 1); stroke: rgba(213, 208, 76, 1);"/>
    <path d="M 918.72 558.72 L 919.68 567.36 L 917.76 567.36 L 918.72 558.72 Z " style="fill: rgba(213, 208, 76, 1); stroke: rgba(213, 208, 76, 1);"/>
    <path d="M 957.12 558.72 L 958.08 563.52 L 955.2 570.24 L 954.24 565.44 L 957.12 558.72 Z " style="fill: rgba(213, 208, 76, 1); stroke: rgba(213, 208, 76, 1);"/>
    <path d="M 749.76 562.56 L 750.72 567.36 L 748.8 567.36 L 749.76 562.56 Z " style="fill: rgba(213, 208, 76, 1); stroke: rgba(213, 208, 76, 1);"/>
    <path d="M 607.68 564.48 L 612.48 573.12 L 610.56 573.12 L 607.68 564.48 Z " style="fill: rgba(213, 208, 76, 1); stroke: rgba(213, 208, 76, 1);"/>
    <path d="M 922.56 566.4 L 923.52 576.96 L 920.64 591.36 L 919.68 578.88 L 922.56 566.4 Z " style="fill: rgba(213, 208, 76, 1); stroke: rgba(213, 208, 76, 1);"/>
    <path d="M 751.68 570.24 L 752.64 575.04 L 750.72 575.04 L 751.68 570.24 Z " style="fill: rgba(213, 208, 76, 1); stroke: rgba(213, 208, 76, 1);"/>
    <path d="M 916.8 570.24 L 917.76 578.88 L 915.84 578.88 L 916.8 570.24 Z " style="fill: rgba(213, 208, 76, 1); stroke: rgba(213, 208, 76, 1);"/>
    <path d="M 757.44 572.16 L 760.32 584.64 L 758.4 584.64 L 757.44 572.16 Z " style="fill: rgba(213, 208, 76, 1); stroke: rgba(213, 208, 76, 1);"/>
    <path d="M 953.28 572.16 L 954.24 576.96 L 952.32 576.96 L 953.28 572.16 Z " style="fill: rgba(213, 208, 76, 1); stroke: rgba(213, 208, 76, 1);"/>
    <path d="M 613.44 576 L 616.32 582.72 L 614.4 582.72 L 613.44 576 Z " style="fill: rgba(213, 208, 76, 1); stroke: rgba(213, 208, 76, 1);"/>
    <path d="M 792 576 L 792.96 594.24 L 791.04 594.24 L 792 576 Z " style="fill: rgba(213, 208, 76, 1); stroke: rgba(213, 208, 76, 1);"/>
    <path d="M 914.88 583.68 L 915.84 594.24 L 913.92 594.24 L 914.88 583.68 Z " style="fill: rgba(213, 208, 76, 1); stroke: rgba(213, 208, 76, 1);"/>
    <path d="M 617.28 585.6 L 620.16 592.32 L 618.24 592.32 L 617.28 585.6 Z " style="fill: rgba(213, 208, 76, 1); stroke: rgba(213, 208, 76, 1);"/>
    <path d="M 949.44 585.6 L 950.4 590.4 L 947.52 597.12 L 946.56 592.32 L 949.44 585.6 Z " style="fill: rgba(213, 208, 76, 1); stroke: rgba(213, 208, 76, 1);"/>
    <path d="M 761.28 587.52 L 769.92 619.2 L 768 619.2 L 760.32 592.32 L 761.28 587.52 Z " style="fill: rgba(213, 208, 76, 1); stroke: rgba(213, 208, 76, 1);"/>
    <path d="M 788.16 587.52 L 789.12 609.6 L 791.04 611.52 L 791.04 640.32 L 789.12 640.32 L 788.16 587.52 Z " style="fill: rgba(213, 208, 76, 1); stroke: rgba(213, 208, 76, 1);"/>
    <path d="M 757.44 591.36 L 758.4 596.16 L 756.48 596.16 L 757.44 591.36 Z " style="fill: rgba(213, 208, 76, 1); stroke: rgba(213, 208, 76, 1);"/>
    <path d="M 569.28 593.28 L 577.92 607.68 L 574.08 605.76 L 569.28 593.28 Z " style="fill: rgba(213, 208, 76, 1); stroke: rgba(213, 208, 76, 1);"/>
    <path d="M 918.72 593.28 L 919.68 605.76 L 915.84 607.68 L 918.72 593.28 Z " style="fill: rgba(213, 208, 76, 1); stroke: rgba(213, 208, 76, 1);"/>
    <path d="M 621.12 595.2 L 624 601.92 L 622.08 601.92 L 621.12 595.2 Z " style="fill: rgba(213, 208, 76, 1); stroke: rgba(213, 208, 76, 1);"/>
    <path d="M 793.92 597.12 L 794.88 619.2 L 792.96 619.2 L 793.92 597.12 Z " style="fill: rgba(213, 208, 76, 1); stroke: rgba(213, 208, 76, 1);"/>
    <path d="M 759.36 599.04 L 760.32 603.84 L 758.4 603.84 L 759.36 599.04 Z " style="fill: rgba(213, 208, 76, 1); stroke: rgba(213, 208, 76, 1);"/>
    <path d="M 912.96 599.04 L 913.92 609.6 L 912 609.6 L 912.96 599.04 Z " style="fill: rgba(213, 208, 76, 1); stroke: rgba(213, 208, 76, 1);"/>
    <path d="M 624.96 604.8 L 627.84 611.52 L 625.92 611.52 L 624.96 604.8 Z " style="fill: rgba(213, 208, 76, 1); stroke: rgba(213, 208, 76, 1);"/>
    <path d="M 1087.68 608.64 L 1092.48 609.6 L 1087.68 610.56 L 1087.68 608.64 Z " style="fill: rgba(213, 208, 76, 1); stroke: rgba(213, 208, 76, 1);"/>
    <path d="M 578.88 610.56 L 593.28 634.56 L 589.44 632.64 L 578.88 610.56 Z " style="fill: rgba(213, 208, 76, 1); stroke: rgba(213, 208, 76, 1);"/>
    <path d="M 916.8 610.56 L 917.76 621.12 L 915.84 621.12 L 916.8 610.56 Z " style="fill: rgba(213, 208, 76, 1); stroke: rgba(213, 208, 76, 1);"/>
    <path d="M 941.76 610.56 L 942.72 615.36 L 930.24 648.96 L 929.28 646.08 L 941.76 610.56 Z " style="fill: rgba(213, 208, 76, 1); stroke: rgba(213, 208, 76, 1);"/>
    <path d="M 763.2 612.48 L 764.16 617.28 L 762.24 617.28 L 763.2 612.48 Z " style="fill: rgba(213, 208, 76, 1); stroke: rgba(213, 208, 76, 1);"/>
    <path d="M 936 612.48 L 936.96 617.28 L 926.4 645.12 L 925.44 642.24 L 936 612.48 Z " style="fill: rgba(213, 208, 76, 1); stroke: rgba(213, 208, 76, 1);"/>
    <path d="M 911.04 614.4 L 912 626.88 L 910.08 626.88 L 911.04 614.4 Z " style="fill: rgba(213, 208, 76, 1); stroke: rgba(213, 208, 76, 1);"/>
    <path d="M 1083.84 614.4 Q 1097.76 612 1100.16 621.12 L 1100.16 630.72 L 1086.72 652.8 Q 1081.6 650.64 1082.88 655.68 L 1020.48 720 L 1013.76 721.92 L 1013.76 715.2 L 1031.04 684.48 L 1067.52 628.8 L 1080 616.32 L 1083.84 614.4 Z M 1084 616 L 1080 618 Q 1043 662 1018 716 L 1024 714 L 1091 644 L 1098 631 L 1098 621 Q 1096 614 1084 616 Z " style="fill: rgba(213, 208, 76, 1); stroke: rgba(213, 208, 76, 1);"/>
    <path d="M 630.72 620.16 L 633.6 626.88 L 631.68 626.88 L 630.72 620.16 Z " style="fill: rgba(213, 208, 76, 1); stroke: rgba(213, 208, 76, 1);"/>
    <path d="M 770.88 622.08 L 777.6 644.16 L 775.68 644.16 L 769.92 626.88 L 770.88 622.08 Z " style="fill: rgba(213, 208, 76, 1); stroke: rgba(213, 208, 76, 1);"/>
    <path d="M 1068.48 622.08 L 1065.6 626.88 L 1060.8 633.6 L 1063.68 628.8 L 1068.48 622.08 Z " style="fill: rgba(213, 208, 76, 1); stroke: rgba(213, 208, 76, 1);"/>
    <path d="M 795.84 624 L 796.8 676.8 L 794.88 676.8 L 795.84 624 Z " style="fill: rgba(213, 208, 76, 1); stroke: rgba(213, 208, 76, 1);"/>
    <path d="M 914.88 624 L 915.84 642.24 L 913.92 642.24 L 914.88 624 Z " style="fill: rgba(213, 208, 76, 1); stroke: rgba(213, 208, 76, 1);"/>
    <path d="M 767.04 625.92 L 768 630.72 L 766.08 630.72 L 767.04 625.92 Z " style="fill: rgba(213, 208, 76, 1); stroke: rgba(213, 208, 76, 1);"/>
    <path d="M 909.12 633.6 L 910.08 649.92 L 908.16 649.92 L 909.12 633.6 Z " style="fill: rgba(213, 208, 76, 1); stroke: rgba(213, 208, 76, 1);"/>
    <path d="M 1058.88 635.52 L 1056 640.32 L 1053.12 645.12 L 1054.08 642.24 L 1058.88 635.52 Z " style="fill: rgba(213, 208, 76, 1); stroke: rgba(213, 208, 76, 1);"/>
    <path d="M 594.24 637.44 L 616.32 672.96 L 612.48 671.04 L 594.24 637.44 Z " style="fill: rgba(213, 208, 76, 1); stroke: rgba(213, 208, 76, 1);"/>
    <path d="M 638.4 641.28 L 643.2 653.76 L 641.28 653.76 L 638.4 641.28 Z " style="fill: rgba(213, 208, 76, 1); stroke: rgba(213, 208, 76, 1);"/>
    <path d="M 1097.28 643.2 L 1092.48 649.92 Q 1059.733 693.013 1018.56 727.68 L 1012.8 731.52 L 1016.64 725.76 L 1073.28 671.04 L 1097.28 643.2 Z " style="fill: rgba(213, 208, 76, 1); stroke: rgba(213, 208, 76, 1);"/>
    <path d="M 792 645.12 L 792.96 665.28 L 791.04 673.92 L 785.28 671.04 L 781.44 659.52 L 783.36 659.52 L 788.16 668.16 L 791.04 663.36 L 792 645.12 Z " style="fill: rgba(213, 208, 76, 1); stroke: rgba(213, 208, 76, 1);"/>
    <path d="M 912.96 645.12 L 913.92 664.32 Q 919.04 666.48 917.76 661.44 L 924.48 647.04 L 925.44 651.84 L 914.88 670.08 L 912 667.2 L 912.96 645.12 Z " style="fill: rgba(213, 208, 76, 1); stroke: rgba(213, 208, 76, 1);"/>
    <path d="M 1051.2 647.04 L 1049.28 650.88 L 1051.2 647.04 Z " style="fill: rgba(213, 208, 76, 1); stroke: rgba(213, 208, 76, 1);"/>
    <path d="M 928.32 650.88 L 929.28 653.76 L 924.48 664.32 L 923.52 661.44 L 928.32 650.88 Z " style="fill: rgba(213, 208, 76, 1); stroke: rgba(213, 208, 76, 1);"/>
    <path d="M 1047.36 652.8 L 1045.44 656.64 L 1047.36 652.8 Z " style="fill: rgba(213, 208, 76, 1); stroke: rgba(213, 208, 76, 1);"/>
    <path d="M 1043.52 658.56 L 1042.56 661.44 L 1020.48 696.96 L 1021.44 694.08 L 1043.52 658.56 Z " style="fill: rgba(213, 208, 76, 1); stroke: rgba(213, 208, 76, 1);"/>
    <path d="M 907.2 660.48 L 908.16 672.96 L 906.24 672.96 L 907.2 660.48 Z " style="fill: rgba(213, 208, 76, 1); stroke: rgba(213, 208, 76, 1);"/>
    <path d="M 920.64 670.08 L 921.6 672.96 L 917.76 674.88 L 920.64 670.08 Z " style="fill: rgba(213, 208, 76, 1); stroke: rgba(213, 208, 76, 1);"/>
    <path d="M 782.4 672 L 787.2 680.64 L 783.36 678.72 L 782.4 672 Z " style="fill: rgba(213, 208, 76, 1); stroke: rgba(213, 208, 76, 1);"/>
    <path d="M 617.28 675.84 L 625.92 688.32 L 622.08 686.4 L 617.28 675.84 Z " style="fill: rgba(213, 208, 76, 1); stroke: rgba(213, 208, 76, 1);"/>
    <path d="M 646.08 677.76 L 650.88 694.08 L 648.96 694.08 L 646.08 677.76 Z " style="fill: rgba(213, 208, 76, 1); stroke: rgba(213, 208, 76, 1);"/>
    <path d="M 651.84 679.68 L 656.64 696 L 654.72 696 L 651.84 679.68 Z " style="fill: rgba(213, 208, 76, 1); stroke: rgba(213, 208, 76, 1);"/>
    <path d="M 909.12 679.68 L 910.08 684.48 L 908.16 684.48 L 909.12 679.68 Z " style="fill: rgba(213, 208, 76, 1); stroke: rgba(213, 208, 76, 1);"/>
    <path d="M 914.88 681.6 L 912.96 685.44 L 914.88 681.6 Z " style="fill: rgba(213, 208, 76, 1); stroke: rgba(213, 208, 76, 1);"/>
    <path d="M 788.16 683.52 L 790.08 687.36 L 788.16 683.52 Z " style="fill: rgba(213, 208, 76, 1); stroke: rgba(213, 208, 76, 1);"/>
    <path d="M 626.88 691.2 Q 639.631 713.969 658.56 730.56 L 643.2 717.12 L 626.88 691.2 Z " style="fill: rgba(213, 208, 76, 1); stroke: rgba(213, 208, 76, 1);"/>
    <path d="M 657.6 698.88 L 660.48 711.36 L 658.56 711.36 L 657.6 698.88 Z " style="fill: rgba(213, 208, 76, 1); stroke: rgba(213, 208, 76, 1);"/>
    <path d="M 1018.56 698.88 L 1017.6 701.76 L 1012.8 710.4 L 1013.76 707.52 L 1018.56 698.88 Z " style="fill: rgba(213, 208, 76, 1); stroke: rgba(213, 208, 76, 1);"/>
    <path d="M 432.96 704.64 L 437.76 705.6 L 432.96 706.56 L 432.96 704.64 Z " style="fill: rgba(213, 208, 76, 1); stroke: rgba(213, 208, 76, 1);"/>
    <path d="M 415.68 708.48 L 413.76 712.32 L 415.68 708.48 Z " style="fill: rgba(213, 208, 76, 1); stroke: rgba(213, 208, 76, 1);"/>
    <path d="M 427.2 708.48 L 442.56 712.32 L 467.52 733.44 L 448.32 710.4 L 537.6 803.52 L 526.08 793.92 L 469.44 733.44 L 468.48 736.32 L 504 773.76 Q 508.32 772.32 506.88 776.64 L 539.52 813.12 L 541.44 821.76 L 536.64 821.76 L 515.52 810.24 L 448.32 762.24 L 420.48 738.24 Q 413.12 732.16 414.72 717.12 L 427.2 708.48 Z M 427 710 L 421 712 L 417 719 Q 415 733 422 738 L 502 799 L 529 816 L 538 818 L 528 802 L 492 761 L 450 720 Q 443 711 427 710 Z " style="fill: rgba(213, 208, 76, 1); stroke: rgba(213, 208, 76, 1);"/>
    <path d="M 661.44 714.24 L 662.4 720.96 L 660.48 720.96 L 661.44 714.24 Z " style="fill: rgba(213, 208, 76, 1); stroke: rgba(213, 208, 76, 1);"/>
    <path d="M 813.12 729.6 L 837.12 730.56 L 813.12 731.52 L 813.12 729.6 Z " style="fill: rgba(213, 208, 76, 1); stroke: rgba(213, 208, 76, 1);"/>
    <path d="M 788.16 731.52 L 800.64 732.48 L 788.16 733.44 L 788.16 731.52 Z " style="fill: rgba(213, 208, 76, 1); stroke: rgba(213, 208, 76, 1);"/>
    <path d="M 849.6 731.52 L 862.08 732.48 L 849.6 733.44 L 849.6 731.52 Z " style="fill: rgba(213, 208, 76, 1); stroke: rgba(213, 208, 76, 1);"/>
    <path d="M 1003.2 731.52 L 1005.12 735.36 L 1003.2 731.52 Z " style="fill: rgba(213, 208, 76, 1); stroke: rgba(213, 208, 76, 1);"/>
    <path d="M 774.72 733.44 L 785.28 734.4 L 774.72 735.36 L 774.72 733.44 Z " style="fill: rgba(213, 208, 76, 1); stroke: rgba(213, 208, 76, 1);"/>
    <path d="M 866.88 733.44 L 875.52 734.4 L 866.88 735.36 L 866.88 733.44 Z " style="fill: rgba(213, 208, 76, 1); stroke: rgba(213, 208, 76, 1);"/>
    <path d="M 765.12 735.36 L 771.84 736.32 L 765.12 737.28 L 765.12 735.36 Z " style="fill: rgba(213, 208, 76, 1); stroke: rgba(213, 208, 76, 1);"/>
    <path d="M 797.76 735.36 L 852.48 736.32 L 797.76 737.28 L 797.76 735.36 Z " style="fill: rgba(213, 208, 76, 1); stroke: rgba(213, 208, 76, 1);"/>
    <path d="M 878.4 735.36 L 885.12 736.32 L 878.4 737.28 L 878.4 735.36 Z " style="fill: rgba(213, 208, 76, 1); stroke: rgba(213, 208, 76, 1);"/>
    <path d="M 415.68 737.28 L 431.04 752.64 L 468.48 780.48 L 463.68 777.6 L 431.04 754.56 L 415.68 737.28 Z " style="fill: rgba(213, 208, 76, 1); stroke: rgba(213, 208, 76, 1);"/>
    <path d="M 755.52 737.28 L 762.24 738.24 L 742.08 743.04 L 742.08 741.12 L 755.52 737.28 Z " style="fill: rgba(213, 208, 76, 1); stroke: rgba(213, 208, 76, 1);"/>
    <path d="M 782.4 737.28 L 794.88 738.24 L 782.4 739.2 L 782.4 737.28 Z " style="fill: rgba(213, 208, 76, 1); stroke: rgba(213, 208, 76, 1);"/>
    <path d="M 855.36 737.28 L 867.84 738.24 L 855.36 739.2 L 855.36 737.28 Z " style="fill: rgba(213, 208, 76, 1); stroke: rgba(213, 208, 76, 1);"/>
    <path d="M 888 737.28 L 908.16 742.08 L 903.36 743.04 L 888 739.2 L 888 737.28 Z " style="fill: rgba(213, 208, 76, 1); stroke: rgba(213, 208, 76, 1);"/>
    <path d="M 770.88 739.2 L 779.52 740.16 L 770.88 741.12 L 770.88 739.2 Z " style="fill: rgba(213, 208, 76, 1); stroke: rgba(213, 208, 76, 1);"/>
    <path d="M 870.72 739.2 L 879.36 740.16 L 870.72 741.12 L 870.72 739.2 Z " style="fill: rgba(213, 208, 76, 1); stroke: rgba(213, 208, 76, 1);"/>
    <path d="M 761.28 741.12 L 768 742.08 L 753.6 744.96 L 753.6 743.04 L 761.28 741.12 Z " style="fill: rgba(213, 208, 76, 1); stroke: rgba(213, 208, 76, 1);"/>
    <path d="M 882.24 741.12 Q 919.545 746.055 946.56 761.28 L 943.68 762.24 Q 918 747.6 882.24 743.04 L 882.24 741.12 Z " style="fill: rgba(213, 208, 76, 1); stroke: rgba(213, 208, 76, 1);"/>
    <path d="M 1164.48 741.12 Q 1176.96 739.2 1178.88 747.84 Q 1178.016 758.496 1170.24 762.24 L 1164.48 764.16 L 1164.48 762.24 L 1175.04 755.52 L 1176.96 747.84 Q 1175.04 741.12 1164.48 743.04 Q 1123.196 760.316 1092.48 788.16 L 1095.36 789.12 L 1112.64 783.36 L 1112.64 785.28 L 1087.68 792.96 Q 1080.96 789.12 1089.6 785.28 L 1143.36 750.72 L 1164.48 741.12 Z " style="fill: rgba(213, 208, 76, 1); stroke: rgba(213, 208, 76, 1);"/>
    <path d="M 734.4 743.04 L 739.2 744 L 719.04 750.72 L 719.04 748.8 L 734.4 743.04 Z " style="fill: rgba(213, 208, 76, 1); stroke: rgba(213, 208, 76, 1);"/>
    <path d="M 911.04 743.04 L 931.2 749.76 L 928.32 750.72 L 911.04 744.96 L 911.04 743.04 Z " style="fill: rgba(213, 208, 76, 1); stroke: rgba(213, 208, 76, 1);"/>
    <path d="M 1149.12 743.04 L 1147.2 746.88 L 1139.52 750.72 L 1141.44 746.88 L 1149.12 743.04 Z " style="fill: rgba(213, 208, 76, 1); stroke: rgba(213, 208, 76, 1);"/>
    <path d="M 745.92 744.96 L 750.72 745.92 L 745.92 746.88 L 745.92 744.96 Z " style="fill: rgba(213, 208, 76, 1); stroke: rgba(213, 208, 76, 1);"/>
    <path d="M 738.24 746.88 L 743.04 747.84 L 713.28 758.4 L 715.2 754.56 L 738.24 746.88 Z " style="fill: rgba(213, 208, 76, 1); stroke: rgba(213, 208, 76, 1);"/>
    <path d="M 934.08 750.72 L 940.8 753.6 L 937.92 754.56 L 934.08 750.72 Z " style="fill: rgba(213, 208, 76, 1); stroke: rgba(213, 208, 76, 1);"/>
    <path d="M 1135.68 750.72 L 1133.76 754.56 L 1129.92 756.48 L 1131.84 752.64 L 1135.68 750.72 Z " style="fill: rgba(213, 208, 76, 1); stroke: rgba(213, 208, 76, 1);"/>
    <path d="M 703.68 754.56 L 706.56 755.52 L 696 760.32 L 696 758.4 L 703.68 754.56 Z " style="fill: rgba(213, 208, 76, 1); stroke: rgba(213, 208, 76, 1);"/>
    <path d="M 943.68 754.56 L 958.08 761.28 L 955.2 762.24 L 943.68 756.48 L 943.68 754.56 Z " style="fill: rgba(213, 208, 76, 1); stroke: rgba(213, 208, 76, 1);"/>
    <path d="M 816.96 756.48 L 871.68 757.44 L 816.96 758.4 L 816.96 756.48 Z " style="fill: rgba(213, 208, 76, 1); stroke: rgba(213, 208, 76, 1);"/>
    <path d="M 1126.08 756.48 L 1124.16 760.32 L 1114.56 766.08 L 1116.48 762.24 L 1126.08 756.48 Z " style="fill: rgba(213, 208, 76, 1); stroke: rgba(213, 208, 76, 1);"/>
    <path d="M 705.6 758.4 L 710.4 759.36 L 703.68 762.24 L 705.6 758.4 Z " style="fill: rgba(213, 208, 76, 1); stroke: rgba(213, 208, 76, 1);"/>
    <path d="M 799.68 758.4 L 812.16 759.36 L 763.2 768 L 719.04 783.36 Q 660.07 809.83 618.24 853.44 Q 589.44 884.16 568.32 922.56 L 546.24 975.36 L 545.28 972.48 Q 573.174 890.934 630.72 839.04 Q 668.455 803.815 719.04 781.44 L 755.52 768 L 799.68 758.4 Z " style="fill: rgba(213, 208, 76, 1); stroke: rgba(213, 208, 76, 1);"/>
    <path d="M 874.56 758.4 L 886.08 758.4 L 908.16 763.2 L 899.52 764.16 L 886.08 760.32 L 874.56 760.32 L 874.56 758.4 Z " style="fill: rgba(213, 208, 76, 1); stroke: rgba(213, 208, 76, 1);"/>
    <path d="M 697.92 762.24 L 700.8 763.2 Q 642.864 789.744 602.88 834.24 Q 571.649 869.249 551.04 914.88 L 537.6 953.28 L 532.8 975.36 L 531.84 968.64 L 549.12 914.88 L 566.4 880.32 L 587.52 848.64 Q 592.64 850.8 591.36 845.76 L 628.8 806.4 Q 658.937 779.897 697.92 762.24 Z " style="fill: rgba(213, 208, 76, 1); stroke: rgba(213, 208, 76, 1);"/>
    <path d="M 811.2 762.24 L 829.44 763.2 L 811.2 764.16 L 811.2 762.24 Z " style="fill: rgba(213, 208, 76, 1); stroke: rgba(213, 208, 76, 1);"/>
    <path d="M 859.2 762.24 L 877.44 763.2 L 859.2 764.16 L 859.2 762.24 Z " style="fill: rgba(213, 208, 76, 1); stroke: rgba(213, 208, 76, 1);"/>
    <path d="M 949.44 762.24 Q 991.444 779.756 1021.44 809.28 L 1016.64 810.24 L 976.32 787.2 L 925.44 768.96 L 930.24 768 Q 967.765 779.435 999.36 796.8 L 993.6 789.12 L 949.44 764.16 L 949.44 762.24 Z " style="fill: rgba(213, 208, 76, 1); stroke: rgba(213, 208, 76, 1);"/>
    <path d="M 960.96 762.24 L 979.2 772.8 L 976.32 771.84 L 962.88 766.08 L 960.96 762.24 Z " style="fill: rgba(213, 208, 76, 1); stroke: rgba(213, 208, 76, 1);"/>
    <path d="M 1174.08 762.24 L 1172.16 766.08 L 1174.08 762.24 Z " style="fill: rgba(213, 208, 76, 1); stroke: rgba(213, 208, 76, 1);"/>
    <path d="M 795.84 764.16 L 804.48 765.12 L 795.84 766.08 L 795.84 764.16 Z " style="fill: rgba(213, 208, 76, 1); stroke: rgba(213, 208, 76, 1);"/>
    <path d="M 882.24 764.16 L 890.88 765.12 L 882.24 766.08 L 882.24 764.16 Z " style="fill: rgba(213, 208, 76, 1); stroke: rgba(213, 208, 76, 1);"/>
    <path d="M 911.04 764.16 L 923.52 767.04 L 918.72 768 L 911.04 766.08 L 911.04 764.16 Z " style="fill: rgba(213, 208, 76, 1); stroke: rgba(213, 208, 76, 1);"/>
    <path d="M 1158.72 764.16 L 1161.6 765.12 L 1151.04 769.92 L 1151.04 768 L 1158.72 764.16 Z " style="fill: rgba(213, 208, 76, 1); stroke: rgba(213, 208, 76, 1);"/>
    <path d="M 680.64 766.08 L 678.72 769.92 L 671.04 773.76 L 672.96 769.92 L 680.64 766.08 Z " style="fill: rgba(213, 208, 76, 1); stroke: rgba(213, 208, 76, 1);"/>
    <path d="M 786.24 766.08 L 792.96 767.04 L 786.24 768 L 786.24 766.08 Z " style="fill: rgba(213, 208, 76, 1); stroke: rgba(213, 208, 76, 1);"/>
    <path d="M 895.68 766.08 L 902.4 767.04 L 895.68 768 L 895.68 766.08 Z " style="fill: rgba(213, 208, 76, 1); stroke: rgba(213, 208, 76, 1);"/>
    <path d="M 1110.72 766.08 L 1108.8 769.92 L 1085.76 785.28 L 1089.6 779.52 L 1110.72 766.08 Z " style="fill: rgba(213, 208, 76, 1); stroke: rgba(213, 208, 76, 1);"/>
    <path d="M 1166.4 766.08 L 1169.28 767.04 L 1158.72 771.84 L 1158.72 769.92 L 1166.4 766.08 Z " style="fill: rgba(213, 208, 76, 1); stroke: rgba(213, 208, 76, 1);"/>
    <path d="M 776.64 768 L 781.44 768.96 L 776.64 769.92 L 776.64 768 Z " style="fill: rgba(213, 208, 76, 1); stroke: rgba(213, 208, 76, 1);"/>
    <path d="M 905.28 768 L 912 768.96 L 905.28 769.92 L 905.28 768 Z " style="fill: rgba(213, 208, 76, 1); stroke: rgba(213, 208, 76, 1);"/>
    <path d="M 768.96 769.92 L 773.76 770.88 L 768.96 771.84 L 768.96 769.92 Z " style="fill: rgba(213, 208, 76, 1); stroke: rgba(213, 208, 76, 1);"/>
    <path d="M 914.88 769.92 L 919.68 770.88 L 914.88 771.84 L 914.88 769.92 Z " style="fill: rgba(213, 208, 76, 1); stroke: rgba(213, 208, 76, 1);"/>
    <path d="M 1145.28 769.92 L 1148.16 770.88 L 1141.44 773.76 L 1141.44 771.84 L 1145.28 769.92 Z " style="fill: rgba(213, 208, 76, 1); stroke: rgba(213, 208, 76, 1);"/>
    <path d="M 761.28 771.84 L 766.08 772.8 L 761.28 773.76 L 761.28 771.84 Z " style="fill: rgba(213, 208, 76, 1); stroke: rgba(213, 208, 76, 1);"/>
    <path d="M 1152.96 771.84 L 1155.84 772.8 L 1145.28 777.6 L 1145.28 775.68 L 1152.96 771.84 Z " style="fill: rgba(213, 208, 76, 1); stroke: rgba(213, 208, 76, 1);"/>
    <path d="M 667.2 773.76 L 665.28 777.6 L 661.44 779.52 L 663.36 775.68 L 667.2 773.76 Z " style="fill: rgba(213, 208, 76, 1); stroke: rgba(213, 208, 76, 1);"/>
    <path d="M 928.32 773.76 L 933.12 774.72 L 928.32 775.68 L 928.32 773.76 Z " style="fill: rgba(213, 208, 76, 1); stroke: rgba(213, 208, 76, 1);"/>
    <path d="M 982.08 773.76 Q 1020.24 796.08 1048.32 828.48 L 1022.4 804.48 L 984 777.6 L 982.08 773.76 Z " style="fill: rgba(213, 208, 76, 1); stroke: rgba(213, 208, 76, 1);"/>
    <path d="M 1135.68 773.76 L 1138.56 774.72 L 1131.84 777.6 L 1131.84 775.68 L 1135.68 773.76 Z " style="fill: rgba(213, 208, 76, 1); stroke: rgba(213, 208, 76, 1);"/>
    <path d="M 742.08 777.6 L 746.88 778.56 L 738.24 781.44 L 738.24 779.52 L 742.08 777.6 Z " style="fill: rgba(213, 208, 76, 1); stroke: rgba(213, 208, 76, 1);"/>
    <path d="M 1126.08 777.6 L 1128.96 778.56 L 1116.48 783.36 L 1116.48 781.44 L 1126.08 777.6 Z " style="fill: rgba(213, 208, 76, 1); stroke: rgba(213, 208, 76, 1);"/>
    <path d="M 1139.52 777.6 L 1142.4 778.56 L 1135.68 781.44 L 1135.68 779.52 L 1139.52 777.6 Z " style="fill: rgba(213, 208, 76, 1); stroke: rgba(213, 208, 76, 1);"/>
    <path d="M 657.6 779.52 L 655.68 783.36 L 657.6 779.52 Z " style="fill: rgba(213, 208, 76, 1); stroke: rgba(213, 208, 76, 1);"/>
    <path d="M 947.52 779.52 L 954.24 782.4 L 951.36 783.36 L 947.52 779.52 Z " style="fill: rgba(213, 208, 76, 1); stroke: rgba(213, 208, 76, 1);"/>
    <path d="M 471.36 781.44 L 512.64 811.2 L 509.76 810.24 L 475.2 787.2 L 471.36 781.44 Z " style="fill: rgba(213, 208, 76, 1); stroke: rgba(213, 208, 76, 1);"/>
    <path d="M 732.48 781.44 L 735.36 782.4 L 715.2 791.04 L 715.2 789.12 L 732.48 781.44 Z " style="fill: rgba(213, 208, 76, 1); stroke: rgba(213, 208, 76, 1);"/>
    <path d="M 651.84 783.36 L 648 789.12 Q 617.195 808.235 595.2 836.16 L 571.2 867.84 L 574.08 863.04 Q 596.116 826.516 628.8 800.64 L 651.84 783.36 Z " style="fill: rgba(213, 208, 76, 1); stroke: rgba(213, 208, 76, 1);"/>
    <path d="M 957.12 783.36 L 994.56 801.6 L 991.68 800.64 L 957.12 785.28 L 957.12 783.36 Z " style="fill: rgba(213, 208, 76, 1); stroke: rgba(213, 208, 76, 1);"/>
    <path d="M 1124.16 783.36 L 1127.04 784.32 L 1120.32 787.2 L 1120.32 785.28 L 1124.16 783.36 Z " style="fill: rgba(213, 208, 76, 1); stroke: rgba(213, 208, 76, 1);"/>
    <path d="M 1081.92 785.28 L 1076.16 792.96 L 1081.92 785.28 Z " style="fill: rgba(213, 208, 76, 1); stroke: rgba(213, 208, 76, 1);"/>
    <path d="M 1114.56 787.2 L 1117.44 788.16 L 1085.76 798.72 L 1085.76 796.8 L 1114.56 787.2 Z " style="fill: rgba(213, 208, 76, 1); stroke: rgba(213, 208, 76, 1);"/>
    <path d="M 709.44 791.04 L 712.32 792 L 699.84 798.72 L 701.76 794.88 L 709.44 791.04 Z " style="fill: rgba(213, 208, 76, 1); stroke: rgba(213, 208, 76, 1);"/>
    <path d="M 696 798.72 L 694.08 802.56 L 686.4 806.4 L 688.32 802.56 L 696 798.72 Z " style="fill: rgba(213, 208, 76, 1); stroke: rgba(213, 208, 76, 1);"/>
    <path d="M 997.44 802.56 L 1004.16 807.36 L 1001.28 806.4 L 997.44 802.56 Z " style="fill: rgba(213, 208, 76, 1); stroke: rgba(213, 208, 76, 1);"/>
    <path d="M 538.56 806.4 L 549.12 820.8 L 547.2 820.8 L 538.56 806.4 Z " style="fill: rgba(213, 208, 76, 1); stroke: rgba(213, 208, 76, 1);"/>
    <path d="M 682.56 806.4 L 680.64 810.24 L 663.36 821.76 L 667.2 816 L 682.56 806.4 Z " style="fill: rgba(213, 208, 76, 1); stroke: rgba(213, 208, 76, 1);"/>
    <path d="M 1007.04 808.32 L 1034.88 828.48 L 1030.08 825.6 L 1008.96 812.16 L 1007.04 808.32 Z " style="fill: rgba(213, 208, 76, 1); stroke: rgba(213, 208, 76, 1);"/>
    <path d="M 515.52 812.16 L 528 820.8 L 525.12 819.84 Q 516.32 817.6 515.52 812.16 Z " style="fill: rgba(213, 208, 76, 1); stroke: rgba(213, 208, 76, 1);"/>
    <path d="M 530.88 821.76 L 539.52 826.56 L 536.64 827.52 L 530.88 821.76 Z " style="fill: rgba(213, 208, 76, 1); stroke: rgba(213, 208, 76, 1);"/>
    <path d="M 659.52 821.76 L 653.76 829.44 Q 629.184 844.224 612.48 866.88 L 592.32 892.8 L 595.2 888 Q 614.779 857.659 642.24 835.2 L 659.52 821.76 Z " style="fill: rgba(213, 208, 76, 1); stroke: rgba(213, 208, 76, 1);"/>
    <path d="M 552 825.6 L 552.96 830.4 L 551.04 830.4 L 552 825.6 Z " style="fill: rgba(213, 208, 76, 1); stroke: rgba(213, 208, 76, 1);"/>
    <path d="M 1037.76 829.44 L 1043.52 837.12 L 1037.76 829.44 Z " style="fill: rgba(213, 208, 76, 1); stroke: rgba(213, 208, 76, 1);"/>
    <path d="M 1055.04 837.12 L 1058.88 842.88 L 1055.04 837.12 Z " style="fill: rgba(213, 208, 76, 1); stroke: rgba(213, 208, 76, 1);"/>
    <path d="M 1053.12 842.88 L 1066.56 858.24 L 1053.12 842.88 Z " style="fill: rgba(213, 208, 76, 1); stroke: rgba(213, 208, 76, 1);"/>
    <path d="M 1064.64 848.64 L 1066.56 852.48 L 1064.64 848.64 Z " style="fill: rgba(213, 208, 76, 1); stroke: rgba(213, 208, 76, 1);"/>
    <path d="M 1070.4 856.32 L 1072.32 860.16 L 1070.4 856.32 Z " style="fill: rgba(213, 208, 76, 1); stroke: rgba(213, 208, 76, 1);"/>
    <path d="M 1074.24 862.08 L 1084.8 876.48 L 1073.28 866.88 L 1074.24 862.08 Z " style="fill: rgba(213, 208, 76, 1); stroke: rgba(213, 208, 76, 1);"/>
    <path d="M 350.4 867.84 L 364.8 868.8 L 350.4 869.76 L 350.4 867.84 Z " style="fill: rgba(213, 208, 76, 1); stroke: rgba(213, 208, 76, 1);"/>
    <path d="M 569.28 869.76 L 568.32 872.64 L 557.76 890.88 L 558.72 888 L 569.28 869.76 Z " style="fill: rgba(213, 208, 76, 1); stroke: rgba(213, 208, 76, 1);"/>
    <path d="M 373.44 871.68 L 380.16 874.56 L 377.28 875.52 L 373.44 871.68 Z " style="fill: rgba(213, 208, 76, 1); stroke: rgba(213, 208, 76, 1);"/>
    <path d="M 348.48 873.6 L 366.72 874.56 L 348.48 875.52 L 343.68 880.32 L 343.68 889.92 L 352.32 898.56 L 374.4 905.28 L 369.6 906.24 Q 353.052 903.588 343.68 893.76 L 341.76 877.44 L 348.48 873.6 Z " style="fill: rgba(213, 208, 76, 1); stroke: rgba(213, 208, 76, 1);"/>
    <path d="M 369.6 875.52 L 409.92 890.88 L 474.24 921.6 L 474.24 927.36 L 459.84 927.36 L 449.28 924.48 L 457.92 923.52 L 468.48 925.44 L 465.6 919.68 L 396.48 887.04 L 373.44 879.36 L 369.6 875.52 Z " style="fill: rgba(213, 208, 76, 1); stroke: rgba(213, 208, 76, 1);"/>
    <path d="M 383.04 875.52 L 389.76 878.4 L 386.88 879.36 L 383.04 875.52 Z " style="fill: rgba(213, 208, 76, 1); stroke: rgba(213, 208, 76, 1);"/>
    <path d="M 392.64 879.36 L 403.2 884.16 L 400.32 885.12 L 392.64 881.28 L 392.64 879.36 Z " style="fill: rgba(213, 208, 76, 1); stroke: rgba(213, 208, 76, 1);"/>
    <path d="M 406.08 885.12 L 437.76 899.52 L 434.88 900.48 L 406.08 887.04 L 406.08 885.12 Z " style="fill: rgba(213, 208, 76, 1); stroke: rgba(213, 208, 76, 1);"/>
    <path d="M 1147.2 890.88 L 1161.6 891.84 L 1147.2 892.8 L 1147.2 890.88 Z " style="fill: rgba(213, 208, 76, 1); stroke: rgba(213, 208, 76, 1);"/>
    <path d="M 1193.28 890.88 L 1205.76 891.84 L 1193.28 892.8 L 1193.28 890.88 Z " style="fill: rgba(213, 208, 76, 1); stroke: rgba(213, 208, 76, 1);"/>
    <path d="M 555.84 892.8 L 554.88 895.68 L 553.92 898.56 L 552.96 895.68 L 555.84 892.8 Z " style="fill: rgba(213, 208, 76, 1); stroke: rgba(213, 208, 76, 1);"/>
    <path d="M 1133.76 892.8 L 1138.56 893.76 L 1133.76 894.72 L 1133.76 892.8 Z " style="fill: rgba(213, 208, 76, 1); stroke: rgba(213, 208, 76, 1);"/>
    <path d="M 340.8 894.72 L 346.56 902.4 L 340.8 894.72 Z " style="fill: rgba(213, 208, 76, 1); stroke: rgba(213, 208, 76, 1);"/>
    <path d="M 590.4 894.72 L 587.52 899.52 L 578.88 913.92 L 579.84 911.04 L 590.4 894.72 Z " style="fill: rgba(213, 208, 76, 1); stroke: rgba(213, 208, 76, 1);"/>
    <path d="M 1120.32 894.72 L 1125.12 895.68 L 1120.32 896.64 L 1120.32 894.72 Z " style="fill: rgba(213, 208, 76, 1); stroke: rgba(213, 208, 76, 1);"/>
    <path d="M 354.24 904.32 L 362.88 907.2 L 358.08 908.16 L 354.24 904.32 Z " style="fill: rgba(213, 208, 76, 1); stroke: rgba(213, 208, 76, 1);"/>
    <path d="M 448.32 904.32 L 464.64 912.96 L 461.76 912 L 448.32 906.24 L 448.32 904.32 Z " style="fill: rgba(213, 208, 76, 1); stroke: rgba(213, 208, 76, 1);"/>
    <path d="M 377.28 906.24 L 420.48 916.8 L 413.76 917.76 L 377.28 908.16 L 377.28 906.24 Z " style="fill: rgba(213, 208, 76, 1); stroke: rgba(213, 208, 76, 1);"/>
    <path d="M 548.16 908.16 L 549.12 911.04 L 544.32 919.68 L 543.36 916.8 L 548.16 908.16 Z " style="fill: rgba(213, 208, 76, 1); stroke: rgba(213, 208, 76, 1);"/>
    <path d="M 371.52 910.08 L 376.32 911.04 L 371.52 912 L 371.52 910.08 Z " style="fill: rgba(213, 208, 76, 1); stroke: rgba(213, 208, 76, 1);"/>
    <path d="M 379.2 912 L 384 912.96 L 379.2 913.92 L 379.2 912 Z " style="fill: rgba(213, 208, 76, 1); stroke: rgba(213, 208, 76, 1);"/>
    <path d="M 386.88 913.92 L 391.68 914.88 L 386.88 915.84 L 386.88 913.92 Z " style="fill: rgba(213, 208, 76, 1); stroke: rgba(213, 208, 76, 1);"/>
    <path d="M 394.56 915.84 L 399.36 916.8 L 394.56 917.76 L 394.56 915.84 Z " style="fill: rgba(213, 208, 76, 1); stroke: rgba(213, 208, 76, 1);"/>
    <path d="M 471.36 915.84 L 478.08 920.64 L 475.2 919.68 L 471.36 915.84 Z " style="fill: rgba(213, 208, 76, 1); stroke: rgba(213, 208, 76, 1);"/>
    <path d="M 576.96 915.84 L 576 918.72 L 552 973.44 L 551.04 970.56 Q 560.565 939.765 576.96 915.84 Z " style="fill: rgba(213, 208, 76, 1); stroke: rgba(213, 208, 76, 1);"/>
    <path d="M 402.24 917.76 L 407.04 918.72 L 402.24 919.68 L 402.24 917.76 Z " style="fill: rgba(213, 208, 76, 1); stroke: rgba(213, 208, 76, 1);"/>
    <path d="M 423.36 917.76 L 437.76 920.64 L 431.04 921.6 L 423.36 919.68 L 423.36 917.76 Z " style="fill: rgba(213, 208, 76, 1); stroke: rgba(213, 208, 76, 1);"/>
    <path d="M 409.92 919.68 L 414.72 920.64 L 409.92 921.6 L 409.92 919.68 Z " style="fill: rgba(213, 208, 76, 1); stroke: rgba(213, 208, 76, 1);"/>
    <path d="M 1122.24 919.68 L 1125.12 920.64 L 1114.56 925.44 L 1114.56 923.52 L 1122.24 919.68 Z " style="fill: rgba(213, 208, 76, 1); stroke: rgba(213, 208, 76, 1);"/>
    <path d="M 417.6 921.6 L 424.32 922.56 L 417.6 923.52 L 417.6 921.6 Z " style="fill: rgba(213, 208, 76, 1); stroke: rgba(213, 208, 76, 1);"/>
    <path d="M 440.64 921.6 L 447.36 922.56 L 440.64 923.52 L 440.64 921.6 Z " style="fill: rgba(213, 208, 76, 1); stroke: rgba(213, 208, 76, 1);"/>
    <path d="M 480.96 921.6 L 482.88 925.44 L 480.96 921.6 Z " style="fill: rgba(213, 208, 76, 1); stroke: rgba(213, 208, 76, 1);"/>
    <path d="M 542.4 921.6 L 543.36 924.48 L 540.48 929.28 L 539.52 926.4 L 542.4 921.6 Z " style="fill: rgba(213, 208, 76, 1); stroke: rgba(213, 208, 76, 1);"/>
    <path d="M 427.2 923.52 L 432 924.48 L 427.2 925.44 L 427.2 923.52 Z " style="fill: rgba(213, 208, 76, 1); stroke: rgba(213, 208, 76, 1);"/>
    <path d="M 434.88 925.44 L 441.6 926.4 L 434.88 927.36 L 434.88 925.44 Z " style="fill: rgba(213, 208, 76, 1); stroke: rgba(213, 208, 76, 1);"/>
    <path d="M 444.48 927.36 L 451.2 928.32 L 444.48 929.28 L 444.48 927.36 Z " style="fill: rgba(213, 208, 76, 1); stroke: rgba(213, 208, 76, 1);"/>
    <path d="M 488.64 927.36 L 489.6 933.12 L 485.76 932.16 L 488.64 927.36 Z " style="fill: rgba(213, 208, 76, 1); stroke: rgba(213, 208, 76, 1);"/>
    <path d="M 1026.24 927.36 L 1024.32 931.2 L 1020.48 933.12 L 1022.4 929.28 L 1026.24 927.36 Z " style="fill: rgba(213, 208, 76, 1); stroke: rgba(213, 208, 76, 1);"/>
    <path d="M 454.08 929.28 L 462.72 930.24 L 454.08 931.2 L 454.08 929.28 Z " style="fill: rgba(213, 208, 76, 1); stroke: rgba(213, 208, 76, 1);"/>
    <path d="M 465.6 931.2 L 478.08 932.16 L 465.6 933.12 L 465.6 931.2 Z " style="fill: rgba(213, 208, 76, 1); stroke: rgba(213, 208, 76, 1);"/>
    <path d="M 1095.36 933.12 L 1097.28 936.96 L 1095.36 933.12 Z " style="fill: rgba(213, 208, 76, 1); stroke: rgba(213, 208, 76, 1);"/>
    <path d="M 1012.8 935.04 L 1010.88 938.88 L 1012.8 935.04 Z " style="fill: rgba(213, 208, 76, 1); stroke: rgba(213, 208, 76, 1);"/>
    <path d="M 1089.6 935.04 L 1092.48 936 L 1078.08 944.64 L 1080.96 939.84 L 1081.92 936.96 L 1085.76 936.96 L 1089.6 935.04 Z " style="fill: rgba(213, 208, 76, 1); stroke: rgba(213, 208, 76, 1);"/>
    <path d="M 1007.04 938.88 L 1005.12 942.72 L 1007.04 938.88 Z " style="fill: rgba(213, 208, 76, 1); stroke: rgba(213, 208, 76, 1);"/>
    <path d="M 1091.52 938.88 L 1094.4 939.84 L 1070.4 956.16 L 1074.24 950.4 L 1091.52 938.88 Z " style="fill: rgba(213, 208, 76, 1); stroke: rgba(213, 208, 76, 1);"/>
    <path d="M 1074.24 944.64 L 1072.32 948.48 L 1074.24 944.64 Z " style="fill: rgba(213, 208, 76, 1); stroke: rgba(213, 208, 76, 1);"/>
    <path d="M 995.52 946.56 L 993.6 950.4 L 995.52 946.56 Z " style="fill: rgba(213, 208, 76, 1); stroke: rgba(213, 208, 76, 1);"/>
    <path d="M 532.8 948.48 L 533.76 953.28 L 531.84 953.28 L 532.8 948.48 Z " style="fill: rgba(213, 208, 76, 1); stroke: rgba(213, 208, 76, 1);"/>
    <path d="M 989.76 950.4 L 985.92 956.16 L 989.76 950.4 Z " style="fill: rgba(213, 208, 76, 1); stroke: rgba(213, 208, 76, 1);"/>
    <path d="M 982.08 956.16 L 976.32 963.84 L 982.08 956.16 Z " style="fill: rgba(213, 208, 76, 1); stroke: rgba(213, 208, 76, 1);"/>
    <path d="M 1056.96 956.16 L 1055.04 960 L 1056.96 956.16 Z " style="fill: rgba(213, 208, 76, 1); stroke: rgba(213, 208, 76, 1);"/>
    <path d="M 1064.64 958.08 L 1060.8 963.84 L 1064.64 958.08 Z " style="fill: rgba(213, 208, 76, 1); stroke: rgba(213, 208, 76, 1);"/>
    <path d="M 1051.2 960 L 1047.36 965.76 L 1051.2 960 Z " style="fill: rgba(213, 208, 76, 1); stroke: rgba(213, 208, 76, 1);"/>
    <path d="M 528.96 963.84 L 529.92 968.64 L 528 968.64 L 528.96 963.84 Z " style="fill: rgba(213, 208, 76, 1); stroke: rgba(213, 208, 76, 1);"/>
    <path d="M 1055.04 965.76 L 1049.28 973.44 L 1055.04 965.76 Z " style="fill: rgba(213, 208, 76, 1); stroke: rgba(213, 208, 76, 1);"/>
    <path d="M 1041.6 967.68 L 1039.68 971.52 L 1041.6 967.68 Z " style="fill: rgba(213, 208, 76, 1); stroke: rgba(213, 208, 76, 1);"/>
    <path d="M 966.72 969.6 L 955.2 983.04 L 966.72 969.6 Z " style="fill: rgba(213, 208, 76, 1); stroke: rgba(213, 208, 76, 1);"/>
    <path d="M 527.04 971.52 L 528 978.24 L 526.08 978.24 L 527.04 971.52 Z " style="fill: rgba(213, 208, 76, 1); stroke: rgba(213, 208, 76, 1);"/>
    <path d="M 550.08 975.36 L 551.04 980.16 L 548.16 986.88 L 547.2 982.08 L 550.08 975.36 Z " style="fill: rgba(213, 208, 76, 1); stroke: rgba(213, 208, 76, 1);"/>
    <path d="M 1032 975.36 L 1028.16 981.12 L 1032 975.36 Z " style="fill: rgba(213, 208, 76, 1); stroke: rgba(213, 208, 76, 1);"/>
    <path d="M 530.88 977.28 L 531.84 985.92 L 529.92 985.92 L 530.88 977.28 Z " style="fill: rgba(213, 208, 76, 1); stroke: rgba(213, 208, 76, 1);"/>
    <path d="M 544.32 977.28 L 545.28 982.08 Q 536.929 1001.569 534.72 1027.2 L 533.76 1016.64 L 544.32 977.28 Z " style="fill: rgba(213, 208, 76, 1); stroke: rgba(213, 208, 76, 1);"/>
    <path d="M 525.12 981.12 L 526.08 987.84 L 524.16 987.84 L 525.12 981.12 Z " style="fill: rgba(213, 208, 76, 1); stroke: rgba(213, 208, 76, 1);"/>
    <path d="M 528.96 988.8 L 529.92 1001.28 L 528 1001.28 L 528.96 988.8 Z " style="fill: rgba(213, 208, 76, 1); stroke: rgba(213, 208, 76, 1);"/>
    <path d="M 546.24 988.8 L 547.2 993.6 L 544.32 1002.24 L 543.36 995.52 L 546.24 988.8 Z " style="fill: rgba(213, 208, 76, 1); stroke: rgba(213, 208, 76, 1);"/>
    <path d="M 949.44 988.8 L 945.6 994.56 L 949.44 988.8 Z " style="fill: rgba(213, 208, 76, 1); stroke: rgba(213, 208, 76, 1);"/>
    <path d="M 1016.64 988.8 L 1001.28 1006.08 L 1016.64 988.8 Z " style="fill: rgba(213, 208, 76, 1); stroke: rgba(213, 208, 76, 1);"/>
    <path d="M 523.2 994.56 L 524.16 1005.12 L 522.24 1005.12 L 523.2 994.56 Z " style="fill: rgba(213, 208, 76, 1); stroke: rgba(213, 208, 76, 1);"/>
    <path d="M 941.76 998.4 L 937.92 1004.16 L 941.76 998.4 Z " style="fill: rgba(213, 208, 76, 1); stroke: rgba(213, 208, 76, 1);"/>
    <path d="M 1018.56 1002.24 L 1010.88 1011.84 L 1018.56 1002.24 Z " style="fill: rgba(213, 208, 76, 1); stroke: rgba(213, 208, 76, 1);"/>
    <path d="M 527.04 1004.16 L 528.96 1044.48 L 531.84 1041.6 L 532.8 1029.12 L 533.76 1045.44 L 529.92 1062.72 L 530.88 1065.6 Q 525.12 1067.28 528 1058.88 L 526.08 1056.96 L 527.04 1004.16 Z " style="fill: rgba(213, 208, 76, 1); stroke: rgba(213, 208, 76, 1);"/>
    <path d="M 542.4 1004.16 L 543.36 1010.88 L 541.44 1010.88 L 542.4 1004.16 Z " style="fill: rgba(213, 208, 76, 1); stroke: rgba(213, 208, 76, 1);"/>
    <path d="M 936 1006.08 L 934.08 1009.92 L 936 1006.08 Z " style="fill: rgba(213, 208, 76, 1); stroke: rgba(213, 208, 76, 1);"/>
    <path d="M 932.16 1011.84 L 931.2 1014.72 L 928.32 1019.52 L 929.28 1016.64 L 932.16 1011.84 Z " style="fill: rgba(213, 208, 76, 1); stroke: rgba(213, 208, 76, 1);"/>
    <path d="M 521.28 1013.76 L 522.24 1053.12 L 520.32 1053.12 L 521.28 1013.76 Z " style="fill: rgba(213, 208, 76, 1); stroke: rgba(213, 208, 76, 1);"/>
    <path d="M 540.48 1013.76 L 541.44 1020.48 L 539.52 1020.48 L 540.48 1013.76 Z " style="fill: rgba(213, 208, 76, 1); stroke: rgba(213, 208, 76, 1);"/>
    <path d="M 993.6 1013.76 L 985.92 1023.36 L 993.6 1013.76 Z " style="fill: rgba(213, 208, 76, 1); stroke: rgba(213, 208, 76, 1);"/>
    <path d="M 1007.04 1015.68 L 1003.2 1021.44 L 1007.04 1015.68 Z " style="fill: rgba(213, 208, 76, 1); stroke: rgba(213, 208, 76, 1);"/>
    <path d="M 694.08 1019.52 L 747.84 1021.44 L 790.08 1032.96 Q 834.72 1049.76 862.08 1083.84 L 885.12 1129.92 L 890.88 1156.8 L 888.96 1158.72 L 888 1175.04 Q 865.511 1125.529 826.56 1092.48 Q 791.404 1060.436 738.24 1046.4 L 738.24 1048.32 L 782.4 1069.44 L 819.84 1098.24 L 856.32 1145.28 L 871.68 1176 L 877.44 1200 L 857.28 1205.76 L 820.8 1207.68 Q 752.722 1195.118 716.16 1151.04 Q 697.268 1130.572 685.44 1103.04 L 658.56 1028.16 L 667.2 1023.36 L 692.16 1021.44 L 694.08 1019.52 Z " style="fill: rgba(213, 208, 76, 1); stroke: rgba(213, 208, 76, 1);"/>
    <path d="M 1001.28 1023.36 L 997.44 1029.12 L 1001.28 1023.36 Z " style="fill: rgba(213, 208, 76, 1); stroke: rgba(213, 208, 76, 1);"/>
    <path d="M 538.56 1025.28 L 539.52 1033.92 L 537.6 1033.92 L 538.56 1025.28 Z " style="fill: rgba(213, 208, 76, 1); stroke: rgba(213, 208, 76, 1);"/>
    <path d="M 984 1025.28 L 978.24 1032.96 L 984 1025.28 Z " style="fill: rgba(213, 208, 76, 1); stroke: rgba(213, 208, 76, 1);"/>
    <path d="M 419.52 1029.12 L 445.44 1030.08 L 419.52 1031.04 L 419.52 1029.12 Z " style="fill: rgba(213, 208, 76, 1); stroke: rgba(213, 208, 76, 1);"/>
    <path d="M 371.52 1031.04 L 408.96 1032 L 371.52 1032.96 L 371.52 1031.04 Z " style="fill: rgba(213, 208, 76, 1); stroke: rgba(213, 208, 76, 1);"/>
    <path d="M 457.92 1031.04 L 472.32 1032 L 457.92 1032.96 L 457.92 1031.04 Z " style="fill: rgba(213, 208, 76, 1); stroke: rgba(213, 208, 76, 1);"/>
    <path d="M 350.4 1032.96 L 362.88 1033.92 L 350.4 1034.88 L 350.4 1032.96 Z " style="fill: rgba(213, 208, 76, 1); stroke: rgba(213, 208, 76, 1);"/>
    <path d="M 392.64 1034.88 L 459.84 1034.88 L 466.56 1036.8 Q 468.72 1041.92 463.68 1040.64 L 429.12 1052.16 L 413.76 1054.08 L 413.76 1052.16 L 450.24 1044.48 L 460.8 1039.68 L 457.92 1036.8 L 392.64 1036.8 L 392.64 1034.88 Z " style="fill: rgba(213, 208, 76, 1); stroke: rgba(213, 208, 76, 1);"/>
    <path d="M 976.32 1034.88 L 974.4 1038.72 L 976.32 1034.88 Z " style="fill: rgba(213, 208, 76, 1); stroke: rgba(213, 208, 76, 1);"/>
    <path d="M 356.16 1036.8 L 387.84 1037.76 L 348.48 1040.64 L 348.48 1038.72 L 356.16 1036.8 Z " style="fill: rgba(213, 208, 76, 1); stroke: rgba(213, 208, 76, 1);"/>
    <path d="M 336.96 1038.72 L 333.12 1044.48 L 336.96 1038.72 Z " style="fill: rgba(213, 208, 76, 1); stroke: rgba(213, 208, 76, 1);"/>
    <path d="M 989.76 1038.72 L 987.84 1042.56 L 989.76 1038.72 Z " style="fill: rgba(213, 208, 76, 1); stroke: rgba(213, 208, 76, 1);"/>
    <path d="M 342.72 1040.64 L 345.6 1041.6 L 336 1049.28 Q 334.08 1059.84 340.8 1061.76 L 360.96 1064.64 L 344.64 1065.6 L 334.08 1056.96 L 334.08 1049.28 L 342.72 1040.64 Z " style="fill: rgba(213, 208, 76, 1); stroke: rgba(213, 208, 76, 1);"/>
    <path d="M 469.44 1042.56 L 472.32 1043.52 L 463.68 1046.4 L 463.68 1044.48 L 469.44 1042.56 Z " style="fill: rgba(213, 208, 76, 1); stroke: rgba(213, 208, 76, 1);"/>
    <path d="M 536.64 1042.56 L 537.6 1097.28 L 535.68 1097.28 L 536.64 1042.56 Z " style="fill: rgba(213, 208, 76, 1); stroke: rgba(213, 208, 76, 1);"/>
    <path d="M 970.56 1042.56 L 968.64 1046.4 L 970.56 1042.56 Z " style="fill: rgba(213, 208, 76, 1); stroke: rgba(213, 208, 76, 1);"/>
    <path d="M 985.92 1044.48 L 984 1048.32 L 985.92 1044.48 Z " style="fill: rgba(213, 208, 76, 1); stroke: rgba(213, 208, 76, 1);"/>
    <path d="M 450.24 1048.32 L 455.04 1049.28 L 450.24 1050.24 L 450.24 1048.32 Z " style="fill: rgba(213, 208, 76, 1); stroke: rgba(213, 208, 76, 1);"/>
    <path d="M 966.72 1048.32 L 964.8 1052.16 L 966.72 1048.32 Z " style="fill: rgba(213, 208, 76, 1); stroke: rgba(213, 208, 76, 1);"/>
    <path d="M 442.56 1050.24 L 447.36 1051.2 L 434.88 1054.08 L 434.88 1052.16 L 442.56 1050.24 Z " style="fill: rgba(213, 208, 76, 1); stroke: rgba(213, 208, 76, 1);"/>
    <path d="M 982.08 1050.24 L 981.12 1053.12 L 978.24 1057.92 L 979.2 1055.04 L 982.08 1050.24 Z " style="fill: rgba(213, 208, 76, 1); stroke: rgba(213, 208, 76, 1);"/>
    <path d="M 404.16 1054.08 L 410.88 1055.04 L 363.84 1065.6 L 362.88 1061.76 L 373.44 1061.76 L 404.16 1054.08 Z " style="fill: rgba(213, 208, 76, 1); stroke: rgba(213, 208, 76, 1);"/>
    <path d="M 427.2 1054.08 L 432 1055.04 L 427.2 1056 L 427.2 1054.08 Z " style="fill: rgba(213, 208, 76, 1); stroke: rgba(213, 208, 76, 1);"/>
    <path d="M 419.52 1056 L 424.32 1056.96 L 419.52 1057.92 L 419.52 1056 Z " style="fill: rgba(213, 208, 76, 1); stroke: rgba(213, 208, 76, 1);"/>
    <path d="M 409.92 1057.92 L 416.64 1058.88 L 409.92 1059.84 L 409.92 1057.92 Z " style="fill: rgba(213, 208, 76, 1); stroke: rgba(213, 208, 76, 1);"/>
    <path d="M 402.24 1059.84 L 407.04 1060.8 L 402.24 1061.76 L 402.24 1059.84 Z " style="fill: rgba(213, 208, 76, 1); stroke: rgba(213, 208, 76, 1);"/>
    <path d="M 959.04 1059.84 L 957.12 1063.68 L 959.04 1059.84 Z " style="fill: rgba(213, 208, 76, 1); stroke: rgba(213, 208, 76, 1);"/>
    <path d="M 333.12 1061.76 L 335.04 1065.6 L 333.12 1061.76 Z " style="fill: rgba(213, 208, 76, 1); stroke: rgba(213, 208, 76, 1);"/>
    <path d="M 392.64 1061.76 L 397.44 1062.72 L 392.64 1063.68 L 392.64 1061.76 Z " style="fill: rgba(213, 208, 76, 1); stroke: rgba(213, 208, 76, 1);"/>
    <path d="M 383.04 1063.68 L 387.84 1064.64 L 383.04 1065.6 L 383.04 1063.68 Z " style="fill: rgba(213, 208, 76, 1); stroke: rgba(213, 208, 76, 1);"/>
    <path d="M 523.2 1063.68 L 524.16 1074.24 L 522.24 1074.24 L 523.2 1063.68 Z " style="fill: rgba(213, 208, 76, 1); stroke: rgba(213, 208, 76, 1);"/>
    <path d="M 909.12 1063.68 L 910.08 1068.48 L 908.16 1068.48 L 909.12 1063.68 Z " style="fill: rgba(213, 208, 76, 1); stroke: rgba(213, 208, 76, 1);"/>
    <path d="M 373.44 1065.6 L 378.24 1066.56 L 373.44 1067.52 L 373.44 1065.6 Z " style="fill: rgba(213, 208, 76, 1); stroke: rgba(213, 208, 76, 1);"/>
    <path d="M 955.2 1065.6 L 953.28 1069.44 L 955.2 1065.6 Z " style="fill: rgba(213, 208, 76, 1); stroke: rgba(213, 208, 76, 1);"/>
    <path d="M 361.92 1067.52 L 368.64 1068.48 L 361.92 1069.44 L 361.92 1067.52 Z " style="fill: rgba(213, 208, 76, 1); stroke: rgba(213, 208, 76, 1);"/>
    <path d="M 907.2 1071.36 L 908.16 1076.16 L 906.24 1076.16 L 907.2 1071.36 Z " style="fill: rgba(213, 208, 76, 1); stroke: rgba(213, 208, 76, 1);"/>
    <path d="M 525.12 1079.04 L 526.08 1085.76 L 524.16 1085.76 L 525.12 1079.04 Z " style="fill: rgba(213, 208, 76, 1); stroke: rgba(213, 208, 76, 1);"/>
    <path d="M 964.8 1080.96 L 963.84 1083.84 L 962.88 1086.72 L 961.92 1083.84 L 964.8 1080.96 Z " style="fill: rgba(213, 208, 76, 1); stroke: rgba(213, 208, 76, 1);"/>
    <path d="M 527.04 1088.64 L 528 1095.36 L 526.08 1095.36 L 527.04 1088.64 Z " style="fill: rgba(213, 208, 76, 1); stroke: rgba(213, 208, 76, 1);"/>
    <path d="M 903.36 1090.56 L 904.32 1095.36 L 902.4 1095.36 L 903.36 1090.56 Z " style="fill: rgba(213, 208, 76, 1); stroke: rgba(213, 208, 76, 1);"/>
    <path d="M 1137.6 1096.32 L 1135.68 1100.16 L 1137.6 1096.32 Z " style="fill: rgba(213, 208, 76, 1); stroke: rgba(213, 208, 76, 1);"/>
    <path d="M 901.44 1100.16 L 902.4 1104.96 L 900.48 1104.96 L 901.44 1100.16 Z " style="fill: rgba(213, 208, 76, 1); stroke: rgba(213, 208, 76, 1);"/>
    <path d="M 936 1100.16 L 936.96 1103.04 L 934.08 1107.84 L 933.12 1104.96 L 936 1100.16 Z " style="fill: rgba(213, 208, 76, 1); stroke: rgba(213, 208, 76, 1);"/>
    <path d="M 1131.84 1105.92 L 1129.92 1109.76 L 1131.84 1105.92 Z " style="fill: rgba(213, 208, 76, 1); stroke: rgba(213, 208, 76, 1);"/>
    <path d="M 1128 1111.68 L 1126.08 1115.52 L 1128 1111.68 Z " style="fill: rgba(213, 208, 76, 1); stroke: rgba(213, 208, 76, 1);"/>
    <path d="M 899.52 1119.36 L 900.48 1129.92 L 898.56 1129.92 L 899.52 1119.36 Z " style="fill: rgba(213, 208, 76, 1); stroke: rgba(213, 208, 76, 1);"/>
    <path d="M 1122.24 1119.36 L 1118.4 1125.12 L 1122.24 1119.36 Z " style="fill: rgba(213, 208, 76, 1); stroke: rgba(213, 208, 76, 1);"/>
    <path d="M 500.16 1125.12 L 506.88 1126.08 L 500.16 1127.04 L 500.16 1125.12 Z " style="fill: rgba(213, 208, 76, 1); stroke: rgba(213, 208, 76, 1);"/>
    <path d="M 486.72 1128.96 L 489.6 1129.92 L 479.04 1134.72 L 479.04 1132.8 L 486.72 1128.96 Z " style="fill: rgba(213, 208, 76, 1); stroke: rgba(213, 208, 76, 1);"/>
    <path d="M 504 1128.96 L 500.16 1134.72 L 504 1128.96 Z " style="fill: rgba(213, 208, 76, 1); stroke: rgba(213, 208, 76, 1);"/>
    <path d="M 1114.56 1128.96 L 1097.28 1148.16 L 1114.56 1128.96 Z " style="fill: rgba(213, 208, 76, 1); stroke: rgba(213, 208, 76, 1);"/>
    <path d="M 473.28 1134.72 L 476.16 1135.68 L 432.96 1157.76 L 434.88 1153.92 L 473.28 1134.72 Z " style="fill: rgba(213, 208, 76, 1); stroke: rgba(213, 208, 76, 1);"/>
    <path d="M 484.8 1134.72 L 489.6 1136.64 L 482.88 1146.24 L 429.12 1188.48 L 419.52 1194.24 L 408 1194.24 L 403.2 1192.32 Q 400.8 1179.84 408 1175.04 L 484.8 1134.72 Z M 477 1140 L 423 1167 L 405 1182 Q 403 1190 408 1192 L 418 1192 L 431 1185 L 484 1141 L 477 1140 Z " style="fill: rgba(213, 208, 76, 1); stroke: rgba(213, 208, 76, 1);"/>
    <path d="M 494.4 1138.56 L 480.96 1153.92 L 471.36 1161.6 L 479.04 1152 L 494.4 1138.56 Z " style="fill: rgba(213, 208, 76, 1); stroke: rgba(213, 208, 76, 1);"/>
    <path d="M 540.48 1138.56 L 542.4 1142.4 L 544.32 1138.56 L 545.28 1141.44 L 542.4 1146.24 L 540.48 1138.56 Z " style="fill: rgba(213, 208, 76, 1); stroke: rgba(213, 208, 76, 1);"/>
    <path d="M 899.52 1138.56 L 900.48 1147.2 L 898.56 1147.2 L 899.52 1138.56 Z " style="fill: rgba(213, 208, 76, 1); stroke: rgba(213, 208, 76, 1);"/>
    <path d="M 546.24 1146.24 L 551.04 1162.56 L 549.12 1162.56 L 543.36 1149.12 L 546.24 1146.24 Z " style="fill: rgba(213, 208, 76, 1); stroke: rgba(213, 208, 76, 1);"/>
    <path d="M 1091.52 1150.08 L 1087.68 1155.84 L 1091.52 1150.08 Z " style="fill: rgba(213, 208, 76, 1); stroke: rgba(213, 208, 76, 1);"/>
    <path d="M 934.08 1155.84 L 935.04 1160.64 L 933.12 1160.64 L 934.08 1155.84 Z " style="fill: rgba(213, 208, 76, 1); stroke: rgba(213, 208, 76, 1);"/>
    <path d="M 1081.92 1157.76 L 1080 1161.6 L 1081.92 1157.76 Z " style="fill: rgba(213, 208, 76, 1); stroke: rgba(213, 208, 76, 1);"/>
    <path d="M 425.28 1159.68 L 423.36 1163.52 L 415.68 1167.36 L 417.6 1163.52 L 425.28 1159.68 Z " style="fill: rgba(213, 208, 76, 1); stroke: rgba(213, 208, 76, 1);"/>
    <path d="M 467.52 1161.6 L 461.76 1169.28 L 419.52 1198.08 L 419.52 1196.16 L 431.04 1190.4 L 467.52 1161.6 Z " style="fill: rgba(213, 208, 76, 1); stroke: rgba(213, 208, 76, 1);"/>
    <path d="M 1076.16 1161.6 L 1074.24 1165.44 L 1076.16 1161.6 Z " style="fill: rgba(213, 208, 76, 1); stroke: rgba(213, 208, 76, 1);"/>
    <path d="M 411.84 1167.36 L 409.92 1171.2 L 411.84 1167.36 Z " style="fill: rgba(213, 208, 76, 1); stroke: rgba(213, 208, 76, 1);"/>
    <path d="M 903.36 1167.36 L 904.32 1172.16 L 902.4 1172.16 L 903.36 1167.36 Z " style="fill: rgba(213, 208, 76, 1); stroke: rgba(213, 208, 76, 1);"/>
    <path d="M 406.08 1171.2 L 402.24 1176.96 L 406.08 1171.2 Z " style="fill: rgba(213, 208, 76, 1); stroke: rgba(213, 208, 76, 1);"/>
    <path d="M 909.12 1178.88 L 910.08 1182.72 L 906.24 1181.76 L 909.12 1178.88 Z " style="fill: rgba(213, 208, 76, 1); stroke: rgba(213, 208, 76, 1);"/>
    <path d="M 1039.68 1180.8 L 1042.56 1181.76 L 1035.84 1184.64 L 1035.84 1182.72 L 1039.68 1180.8 Z " style="fill: rgba(213, 208, 76, 1); stroke: rgba(213, 208, 76, 1);"/>
    <path d="M 926.4 1186.56 L 927.36 1191.36 L 925.44 1191.36 L 926.4 1186.56 Z " style="fill: rgba(213, 208, 76, 1); stroke: rgba(213, 208, 76, 1);"/>
    <path d="M 398.4 1190.4 L 403.2 1197.12 L 397.44 1193.28 L 398.4 1190.4 Z " style="fill: rgba(213, 208, 76, 1); stroke: rgba(213, 208, 76, 1);"/>
    <path d="M 997.44 1194.24 L 1002.24 1195.2 L 997.44 1196.16 L 997.44 1194.24 Z " style="fill: rgba(213, 208, 76, 1); stroke: rgba(213, 208, 76, 1);"/>
    <path d="M 987.84 1196.16 L 992.64 1197.12 L 987.84 1198.08 L 987.84 1196.16 Z " style="fill: rgba(213, 208, 76, 1); stroke: rgba(213, 208, 76, 1);"/>
    <path d="M 408 1198.08 L 416.64 1199.04 L 408 1200 L 408 1198.08 Z " style="fill: rgba(213, 208, 76, 1); stroke: rgba(213, 208, 76, 1);"/>
    <path d="M 976.32 1198.08 L 983.04 1199.04 L 976.32 1200 L 976.32 1198.08 Z " style="fill: rgba(213, 208, 76, 1); stroke: rgba(213, 208, 76, 1);"/>
    <path d="M 960.96 1200 L 969.6 1200.96 L 960.96 1201.92 L 960.96 1200 Z " style="fill: rgba(213, 208, 76, 1); stroke: rgba(213, 208, 76, 1);"/>
    <path d="M 947.52 1201.92 L 943.68 1207.68 L 947.52 1201.92 Z " style="fill: rgba(213, 208, 76, 1); stroke: rgba(213, 208, 76, 1);"/>
    <path d="M 934.08 1215.36 L 930.24 1221.12 L 934.08 1215.36 Z " style="fill: rgba(213, 208, 76, 1); stroke: rgba(213, 208, 76, 1);"/>
    <path d="M 920.64 1217.28 L 921.6 1222.08 L 919.68 1222.08 L 920.64 1217.28 Z " style="fill: rgba(213, 208, 76, 1); stroke: rgba(213, 208, 76, 1);"/>
    <path d="M 928.32 1223.04 L 926.4 1226.88 L 928.32 1223.04 Z " style="fill: rgba(213, 208, 76, 1); stroke: rgba(213, 208, 76, 1);"/>
    <path d="M 615.36 1224.96 L 666.24 1225.92 L 615.36 1226.88 L 615.36 1224.96 Z " style="fill: rgba(213, 208, 76, 1); stroke: rgba(213, 208, 76, 1);"/>
    <path d="M 586.56 1226.88 L 602.88 1227.84 L 586.56 1228.8 L 586.56 1226.88 Z " style="fill: rgba(213, 208, 76, 1); stroke: rgba(213, 208, 76, 1);"/>
    <path d="M 682.56 1226.88 L 695.04 1227.84 L 682.56 1228.8 L 682.56 1226.88 Z " style="fill: rgba(213, 208, 76, 1); stroke: rgba(213, 208, 76, 1);"/>
    <path d="M 569.28 1228.8 L 576 1229.76 L 569.28 1230.72 L 569.28 1228.8 Z " style="fill: rgba(213, 208, 76, 1); stroke: rgba(213, 208, 76, 1);"/>
    <path d="M 707.52 1228.8 L 714.24 1229.76 L 707.52 1230.72 L 707.52 1228.8 Z " style="fill: rgba(213, 208, 76, 1); stroke: rgba(213, 208, 76, 1);"/>
    <path d="M 553.92 1230.72 L 558.72 1231.68 L 553.92 1232.64 L 553.92 1230.72 Z " style="fill: rgba(213, 208, 76, 1); stroke: rgba(213, 208, 76, 1);"/>
    <path d="M 722.88 1230.72 L 729.6 1231.68 L 722.88 1232.64 L 722.88 1230.72 Z " style="fill: rgba(213, 208, 76, 1); stroke: rgba(213, 208, 76, 1);"/>
    <path d="M 540.48 1232.64 L 545.28 1233.6 L 540.48 1234.56 L 540.48 1232.64 Z " style="fill: rgba(213, 208, 76, 1); stroke: rgba(213, 208, 76, 1);"/>
    <path d="M 738.24 1232.64 L 743.04 1233.6 L 738.24 1234.56 L 738.24 1232.64 Z " style="fill: rgba(213, 208, 76, 1); stroke: rgba(213, 208, 76, 1);"/>
    <path d="M 918.72 1232.64 Q 924 1235.04 919.68 1237.44 L 918.72 1240.32 L 918.72 1232.64 Z " style="fill: rgba(213, 208, 76, 1); stroke: rgba(213, 208, 76, 1);"/>
    <path d="M 507.84 1238.4 L 512.64 1239.36 L 507.84 1240.32 L 507.84 1238.4 Z " style="fill: rgba(213, 208, 76, 1); stroke: rgba(213, 208, 76, 1);"/>
    <path d="M 770.88 1238.4 L 775.68 1239.36 L 770.88 1240.32 L 770.88 1238.4 Z " style="fill: rgba(213, 208, 76, 1); stroke: rgba(213, 208, 76, 1);"/>
    <path d="M 498.24 1240.32 L 503.04 1241.28 L 498.24 1242.24 L 498.24 1240.32 Z " style="fill: rgba(213, 208, 76, 1); stroke: rgba(213, 208, 76, 1);"/>
    <path d="M 490.56 1242.24 L 495.36 1243.2 L 490.56 1244.16 L 490.56 1242.24 Z " style="fill: rgba(213, 208, 76, 1); stroke: rgba(213, 208, 76, 1);"/>
    <path d="M 797.76 1244.16 L 802.56 1245.12 L 797.76 1246.08 L 797.76 1244.16 Z " style="fill: rgba(213, 208, 76, 1); stroke: rgba(213, 208, 76, 1);"/>
    <path d="M 592.32 1272.96 L 604.8 1273.92 L 592.32 1274.88 L 592.32 1272.96 Z " style="fill: rgba(213, 208, 76, 1); stroke: rgba(213, 208, 76, 1);"/>
    <path d="M 544.32 1274.88 L 562.56 1275.84 L 544.32 1276.8 L 544.32 1274.88 Z " style="fill: rgba(213, 208, 76, 1); stroke: rgba(213, 208, 76, 1);"/>
    <path d="M 634.56 1274.88 L 654.72 1275.84 L 634.56 1276.8 L 634.56 1274.88 Z " style="fill: rgba(213, 208, 76, 1); stroke: rgba(213, 208, 76, 1);"/>
    <path d="M 523.2 1276.8 L 533.76 1277.76 L 523.2 1278.72 L 523.2 1276.8 Z " style="fill: rgba(213, 208, 76, 1); stroke: rgba(213, 208, 76, 1);"/>
    <path d="M 665.28 1276.8 L 677.76 1277.76 L 665.28 1278.72 L 665.28 1276.8 Z " style="fill: rgba(213, 208, 76, 1); stroke: rgba(213, 208, 76, 1);"/>
    <path d="M 505.92 1278.72 L 512.64 1279.68 L 505.92 1280.64 L 505.92 1278.72 Z " style="fill: rgba(213, 208, 76, 1); stroke: rgba(213, 208, 76, 1);"/>
    <path d="M 688.32 1278.72 L 696.96 1279.68 L 688.32 1280.64 L 688.32 1278.72 Z " style="fill: rgba(213, 208, 76, 1); stroke: rgba(213, 208, 76, 1);"/>
    <path d="M 492.48 1280.64 L 497.28 1281.6 L 492.48 1282.56 L 492.48 1280.64 Z " style="fill: rgba(213, 208, 76, 1); stroke: rgba(213, 208, 76, 1);"/>
    <path d="M 705.6 1280.64 L 712.32 1281.6 L 705.6 1282.56 L 705.6 1280.64 Z " style="fill: rgba(213, 208, 76, 1); stroke: rgba(213, 208, 76, 1);"/>
    <path d="M 479.04 1282.56 L 483.84 1283.52 L 479.04 1284.48 L 479.04 1282.56 Z " style="fill: rgba(213, 208, 76, 1); stroke: rgba(213, 208, 76, 1);"/>
    <path d="M 720.96 1282.56 L 725.76 1283.52 L 720.96 1284.48 L 720.96 1282.56 Z " style="fill: rgba(213, 208, 76, 1); stroke: rgba(213, 208, 76, 1);"/>
    <path d="M 734.4 1284.48 L 739.2 1285.44 L 734.4 1286.4 L 734.4 1284.48 Z " style="fill: rgba(213, 208, 76, 1); stroke: rgba(213, 208, 76, 1);"/>
    <path d="M 745.92 1286.4 L 752.64 1287.36 L 745.92 1288.32 L 745.92 1286.4 Z " style="fill: rgba(213, 208, 76, 1); stroke: rgba(213, 208, 76, 1);"/>
    <path d="M 757.44 1288.32 L 762.24 1289.28 L 757.44 1290.24 L 757.44 1288.32 Z " style="fill: rgba(213, 208, 76, 1); stroke: rgba(213, 208, 76, 1);"/>
    <path d="M 586.56 1290.24 L 620.16 1291.2 L 586.56 1292.16 L 586.56 1290.24 Z " style="fill: rgba(213, 208, 76, 1); stroke: rgba(213, 208, 76, 1);"/>
    <path d="M 768.96 1290.24 L 773.76 1291.2 L 768.96 1292.16 L 768.96 1290.24 Z " style="fill: rgba(213, 208, 76, 1); stroke: rgba(213, 208, 76, 1);"/>
    <path d="M 550.08 1292.16 L 554.88 1293.12 L 550.08 1294.08 L 550.08 1292.16 Z " style="fill: rgba(213, 208, 76, 1); stroke: rgba(213, 208, 76, 1);"/>
    <path d="M 653.76 1292.16 L 658.56 1293.12 L 653.76 1294.08 L 653.76 1292.16 Z " style="fill: rgba(213, 208, 76, 1); stroke: rgba(213, 208, 76, 1);"/>
    <path d="M 778.56 1292.16 L 783.36 1293.12 L 778.56 1294.08 L 778.56 1292.16 Z " style="fill: rgba(213, 208, 76, 1); stroke: rgba(213, 208, 76, 1);"/>
    <path d="M 421.44 1294.08 L 426.24 1295.04 L 421.44 1296 L 421.44 1294.08 Z " style="fill: rgba(213, 208, 76, 1); stroke: rgba(213, 208, 76, 1);"/>
    <path d="M 788.16 1294.08 L 792.96 1295.04 L 788.16 1296 L 788.16 1294.08 Z " style="fill: rgba(213, 208, 76, 1); stroke: rgba(213, 208, 76, 1);"/>
    <path d="M 344.64 1296 L 342.72 1299.84 L 338.88 1301.76 L 340.8 1297.92 L 344.64 1296 Z " style="fill: rgba(213, 208, 76, 1); stroke: rgba(213, 208, 76, 1);"/>
    <path d="M 413.76 1296 L 418.56 1296.96 L 413.76 1297.92 L 413.76 1296 Z " style="fill: rgba(213, 208, 76, 1); stroke: rgba(213, 208, 76, 1);"/>
    <path d="M 797.76 1296 L 802.56 1296.96 L 797.76 1297.92 L 797.76 1296 Z " style="fill: rgba(213, 208, 76, 1); stroke: rgba(213, 208, 76, 1);"/>
    <path d="M 807.36 1297.92 L 812.16 1298.88 L 807.36 1299.84 L 807.36 1297.92 Z " style="fill: rgba(213, 208, 76, 1); stroke: rgba(213, 208, 76, 1);"/>
    <path d="M 824.64 1301.76 L 829.44 1302.72 L 824.64 1303.68 L 824.64 1301.76 Z " style="fill: rgba(213, 208, 76, 1); stroke: rgba(213, 208, 76, 1);"/>
    <path d="M 327.36 1305.6 L 325.44 1309.44 L 327.36 1305.6 Z " style="fill: rgba(213, 208, 76, 1); stroke: rgba(213, 208, 76, 1);"/>
    <path d="M 321.6 1309.44 L 319.68 1313.28 L 321.6 1309.44 Z " style="fill: rgba(213, 208, 76, 1); stroke: rgba(213, 208, 76, 1);"/>
    <path d="M 312 1315.2 L 310.08 1319.04 L 312 1315.2 Z " style="fill: rgba(213, 208, 76, 1); stroke: rgba(213, 208, 76, 1);"/>
    <path d="M 306.24 1319.04 L 304.32 1322.88 L 306.24 1319.04 Z " style="fill: rgba(213, 208, 76, 1); stroke: rgba(213, 208, 76, 1);"/>
    <path d="M 505.92 1319.04 L 510.72 1320 L 505.92 1320.96 L 505.92 1319.04 Z " style="fill: rgba(213, 208, 76, 1); stroke: rgba(213, 208, 76, 1);"/>
    <path d="M 596.16 1319.04 L 602.88 1320 L 596.16 1320.96 L 596.16 1319.04 Z " style="fill: rgba(213, 208, 76, 1); stroke: rgba(213, 208, 76, 1);"/>
    <path d="M 895.68 1319.04 L 900.48 1320 L 895.68 1320.96 L 895.68 1319.04 Z " style="fill: rgba(213, 208, 76, 1); stroke: rgba(213, 208, 76, 1);"/>
    <path d="M 300.48 1322.88 L 298.56 1326.72 L 300.48 1322.88 Z " style="fill: rgba(213, 208, 76, 1); stroke: rgba(213, 208, 76, 1);"/>
    <path d="M 459.84 1322.88 L 464.64 1323.84 L 459.84 1324.8 L 459.84 1322.88 Z " style="fill: rgba(213, 208, 76, 1); stroke: rgba(213, 208, 76, 1);"/>
    <path d="M 294.72 1326.72 L 290.88 1332.48 L 294.72 1326.72 Z " style="fill: rgba(213, 208, 76, 1); stroke: rgba(213, 208, 76, 1);"/>
    <path d="M 287.04 1332.48 L 281.28 1340.16 L 287.04 1332.48 Z " style="fill: rgba(213, 208, 76, 1); stroke: rgba(213, 208, 76, 1);"/>
    <path d="M 292.8 1338.24 L 295.68 1339.2 L 288.96 1342.08 L 288.96 1340.16 L 292.8 1338.24 Z " style="fill: rgba(213, 208, 76, 1); stroke: rgba(213, 208, 76, 1);"/>
    <path d="M 275.52 1342.08 L 273.6 1345.92 L 275.52 1342.08 Z " style="fill: rgba(213, 208, 76, 1); stroke: rgba(213, 208, 76, 1);"/>
    <path d="M 1001.28 1347.84 L 1006.08 1348.8 L 1001.28 1349.76 L 1001.28 1347.84 Z " style="fill: rgba(213, 208, 76, 1); stroke: rgba(213, 208, 76, 1);"/>
    <path d="M 1177.92 1363.2 L 1182.72 1364.16 L 1177.92 1365.12 L 1177.92 1363.2 Z " style="fill: rgba(213, 208, 76, 1); stroke: rgba(213, 208, 76, 1);"/>
    <path d="M 1206.72 1370.88 L 1211.52 1371.84 L 1206.72 1372.8 L 1206.72 1370.88 Z " style="fill: rgba(213, 208, 76, 1); stroke: rgba(213, 208, 76, 1);"/>
    <path d="M 1093.44 1372.8 L 1098.24 1373.76 L 1093.44 1374.72 L 1093.44 1372.8 Z " style="fill: rgba(213, 208, 76, 1); stroke: rgba(213, 208, 76, 1);"/>
    <path d="M 1101.12 1374.72 L 1105.92 1375.68 L 1101.12 1376.64 L 1101.12 1374.72 Z " style="fill: rgba(213, 208, 76, 1); stroke: rgba(213, 208, 76, 1);"/>
    <path d="M 1258.56 1382.4 L 1263.36 1383.36 L 1258.56 1384.32 L 1258.56 1382.4 Z " style="fill: rgba(213, 208, 76, 1); stroke: rgba(213, 208, 76, 1);"/>
    <path d="M 1279.68 1386.24 L 1284.48 1387.2 L 1279.68 1388.16 L 1279.68 1386.24 Z " style="fill: rgba(213, 208, 76, 1); stroke: rgba(213, 208, 76, 1);"/>
    <path d="M 1158.72 1388.16 L 1163.52 1389.12 L 1158.72 1390.08 L 1158.72 1388.16 Z " style="fill: rgba(213, 208, 76, 1); stroke: rgba(213, 208, 76, 1);"/>
    <path d="M 1291.2 1388.16 L 1297.92 1389.12 L 1291.2 1390.08 L 1291.2 1388.16 Z " style="fill: rgba(213, 208, 76, 1); stroke: rgba(213, 208, 76, 1);"/>
    <path d="M 1168.32 1390.08 L 1173.12 1391.04 L 1168.32 1392 L 1168.32 1390.08 Z " style="fill: rgba(213, 208, 76, 1); stroke: rgba(213, 208, 76, 1);"/>
    <path d="M 1302.72 1390.08 L 1309.44 1391.04 L 1302.72 1392 L 1302.72 1390.08 Z " style="fill: rgba(213, 208, 76, 1); stroke: rgba(213, 208, 76, 1);"/>
    <path d="M 1177.92 1392 L 1182.72 1392.96 L 1177.92 1393.92 L 1177.92 1392 Z " style="fill: rgba(213, 208, 76, 1); stroke: rgba(213, 208, 76, 1);"/>
    <path d="M 1316.16 1392 L 1324.8 1392.96 L 1316.16 1393.92 L 1316.16 1392 Z " style="fill: rgba(213, 208, 76, 1); stroke: rgba(213, 208, 76, 1);"/>
    <path d="M 1187.52 1393.92 L 1192.32 1394.88 L 1187.52 1395.84 L 1187.52 1393.92 Z " style="fill: rgba(213, 208, 76, 1); stroke: rgba(213, 208, 76, 1);"/>
    <path d="M 1333.44 1393.92 L 1342.08 1394.88 L 1333.44 1395.84 L 1333.44 1393.92 Z " style="fill: rgba(213, 208, 76, 1); stroke: rgba(213, 208, 76, 1);"/>
    <path d="M 1197.12 1395.84 L 1201.92 1396.8 L 1197.12 1397.76 L 1197.12 1395.84 Z " style="fill: rgba(213, 208, 76, 1); stroke: rgba(213, 208, 76, 1);"/>
    <path d="M 1350.72 1395.84 L 1361.28 1396.8 L 1350.72 1397.76 L 1350.72 1395.84 Z " style="fill: rgba(213, 208, 76, 1); stroke: rgba(213, 208, 76, 1);"/>
    <path d="M 1208.64 1397.76 L 1213.44 1398.72 L 1208.64 1399.68 L 1208.64 1397.76 Z " style="fill: rgba(213, 208, 76, 1); stroke: rgba(213, 208, 76, 1);"/>
    <path d="M 1375.68 1397.76 L 1393.92 1398.72 L 1375.68 1399.68 L 1375.68 1397.76 Z " style="fill: rgba(213, 208, 76, 1); stroke: rgba(213, 208, 76, 1);"/>
    <path d="M 1220.16 1399.68 L 1224.96 1400.64 L 1220.16 1401.6 L 1220.16 1399.68 Z " style="fill: rgba(213, 208, 76, 1); stroke: rgba(213, 208, 76, 1);"/>
    <path d="M 1247.04 1403.52 L 1251.84 1404.48 L 1247.04 1405.44 L 1247.04 1403.52 Z " style="fill: rgba(213, 208, 76, 1); stroke: rgba(213, 208, 76, 1);"/>
    <path d="M 1262.4 1405.44 L 1267.2 1406.4 L 1262.4 1407.36 L 1262.4 1405.44 Z " style="fill: rgba(213, 208, 76, 1); stroke: rgba(213, 208, 76, 1);"/>
    <path d="M 1279.68 1407.36 L 1290.24 1408.32 L 1279.68 1409.28 L 1279.68 1407.36 Z " style="fill: rgba(213, 208, 76, 1); stroke: rgba(213, 208, 76, 1);"/>
    <path d="M 1400.64 1407.36 L 1409.28 1408.32 L 1400.64 1409.28 L 1400.64 1407.36 Z " style="fill: rgba(213, 208, 76, 1); stroke: rgba(213, 208, 76, 1);"/>
    <path d="M 1302.72 1409.28 L 1324.8 1410.24 L 1302.72 1411.2 L 1302.72 1409.28 Z " style="fill: rgba(213, 208, 76, 1); stroke: rgba(213, 208, 76, 1);"/>
    <path d="M 1368 1409.28 L 1388.16 1410.24 L 1368 1411.2 L 1368 1409.28 Z " style="fill: rgba(213, 208, 76, 1); stroke: rgba(213, 208, 76, 1);"/>
    <path d="M 1346.88 1445.76 L 1351.68 1446.72 L 1346.88 1447.68 L 1346.88 1445.76 Z " style="fill: rgba(213, 208, 76, 1); stroke: rgba(213, 208, 76, 1);"/>
    <path d="M 1329.6 1480.32 L 1368.96 1481.28 L 1329.6 1482.24 L 1329.6 1480.32 Z " style="fill: rgba(213, 208, 76, 1); stroke: rgba(213, 208, 76, 1);"/>
    <path d="M 757.44 508.8 Q 775.392 506.208 779.52 517.44 L 785.28 528.96 L 787.2 553.92 L 789.12 555.84 L 789.12 573.12 L 791.04 575.04 L 792.96 619.2 L 794.88 621.12 L 794.88 682.56 L 792 687.36 L 779.52 667.2 L 768 632.64 L 744.96 544.32 L 744.96 523.2 L 753.6 510.72 L 757.44 508.8 Z M 759 513 L 759 515 L 768 514 L 759 513 Z M 750 522 L 749 546 L 751 546 L 750 522 Z M 780 528 L 780 535 L 781 535 L 780 528 Z M 782 536 L 781 548 L 783 548 L 782 536 Z M 752 547 L 751 556 L 753 556 L 752 547 Z M 784 551 L 785 585 L 787 585 L 787 567 L 784 551 Z M 754 557 L 753 564 L 755 564 L 754 557 Z M 756 564 L 755 569 L 756 569 L 756 564 Z M 757 572 L 756 579 L 758 579 L 757 572 Z M 759 580 L 758 585 L 760 585 L 759 580 Z M 761 588 L 760 592 L 762 592 L 761 588 Z M 788 588 L 787 610 L 789 610 L 788 588 Z M 763 593 L 762 600 L 764 600 L 763 593 Z M 765 601 L 764 608 L 766 608 L 765 601 Z M 767 609 L 766 613 L 768 613 L 767 609 Z M 790 611 L 789 640 L 791 640 L 790 611 Z M 769 614 L 768 619 L 770 619 L 769 614 Z M 771 622 L 770 627 L 772 627 L 771 622 Z M 773 628 L 772 633 L 774 633 L 773 628 Z M 775 634 L 774 638 L 776 638 L 775 634 Z M 777 639 L 776 644 L 778 644 L 777 639 Z M 792 645 L 791 663 L 788 668 L 783 660 L 781 660 L 785 671 L 791 674 L 793 665 L 792 645 Z " style="fill: rgba(235, 193, 41, 1); stroke: rgba(235, 193, 41, 1);"/>
    <path d="M 939.84 528 Q 950.56 527.84 954.24 534.72 Q 960 542.4 958.08 557.76 L 929.28 649.92 L 915.84 680.64 L 911.04 685.44 L 908.16 678.72 L 908.16 651.84 L 910.08 649.92 L 910.08 628.8 L 912 626.88 L 912 611.52 L 913.92 609.6 L 919.68 557.76 L 923.52 542.4 L 932.16 531.84 L 939.84 528 Z M 938 534 L 938 536 Q 948 534 949 540 L 950 537 Q 948 531 938 534 Z M 953 545 L 950 560 L 951 566 L 954 560 L 953 545 Z M 926 547 L 925 552 L 927 552 L 926 547 Z M 924 557 L 924 564 L 925 564 L 924 557 Z M 923 566 L 922 577 L 924 577 L 923 566 Z M 949 566 L 948 573 L 950 573 L 949 566 Z M 948 574 L 947 579 L 948 579 L 948 574 Z M 921 578 L 920 590 L 922 590 L 921 578 Z M 946 580 L 945 587 L 947 587 L 946 580 Z M 944 588 L 943 592 L 945 592 L 944 588 Z M 919 593 L 916 608 L 920 606 L 919 593 Z M 942 593 L 941 598 L 943 598 L 942 593 Z M 940 599 L 939 606 L 941 606 L 940 599 Z M 917 611 L 916 621 L 918 621 L 917 611 Z M 936 612 L 935 617 L 937 617 L 936 612 Z M 934 618 L 933 623 L 935 623 L 934 618 Z M 915 624 L 914 642 L 916 642 L 915 624 Z M 932 624 L 931 629 L 933 629 L 932 624 Z M 930 630 L 927 636 L 928 641 L 931 636 L 930 630 Z M 913 645 L 912 667 L 915 670 Q 921 669 920 661 L 918 661 Q 919 666 914 664 L 913 645 Z M 924 647 L 922 652 L 923 657 L 925 652 L 924 647 Z " style="fill: rgba(235, 193, 41, 1); stroke: rgba(235, 193, 41, 1);"/>
    <path d="M 575.04 547.2 L 592.32 549.12 L 602.88 557.76 L 612.48 575.04 L 643.2 655.68 L 656.64 697.92 L 662.4 728.64 L 659.52 731.52 L 645.12 717.12 L 616.32 674.88 L 568.32 592.32 L 562.56 576.96 L 562.56 563.52 L 571.2 549.12 L 575.04 547.2 Z M 577 551 L 577 553 L 588 552 L 577 551 Z M 588 553 L 592 557 L 595 556 L 588 553 Z M 567 563 L 566 577 L 568 577 L 567 563 Z M 569 578 L 568 583 L 570 583 L 569 578 Z M 610 578 L 609 583 L 611 583 L 610 578 Z M 571 584 L 570 588 L 572 588 L 571 584 Z M 613 588 L 612 592 L 614 592 L 613 588 Z M 575 593 L 574 596 L 578 598 L 575 593 Z M 617 597 L 616 602 L 618 602 L 617 597 Z M 621 607 L 620 612 L 622 612 L 621 607 Z M 623 612 L 624 621 L 626 621 L 623 612 Z M 587 614 L 586 617 L 589 619 L 587 614 Z M 627 622 L 626 627 L 628 627 L 627 622 Z M 629 628 L 628 633 L 630 633 L 629 628 Z M 633 637 L 632 642 L 634 642 L 633 637 Z M 635 643 L 634 648 L 636 648 L 635 643 Z M 636 649 L 636 654 L 637 654 L 636 649 Z M 638 655 L 637 660 L 639 660 L 638 655 Z M 640 660 L 639 665 L 641 665 L 640 660 Z M 619 668 L 618 673 L 622 675 L 619 668 Z M 646 678 L 645 683 L 647 683 L 646 678 Z M 627 682 L 626 684 L 630 686 L 627 682 Z M 648 684 L 647 688 L 649 688 L 648 684 Z M 650 689 L 649 694 L 651 694 L 650 689 Z M 652 697 L 651 702 L 653 702 L 652 697 Z M 638 699 L 637 702 L 641 704 L 638 699 Z M 654 703 L 653 715 L 649 715 L 652 720 L 657 717 L 654 703 Z " style="fill: rgba(235, 193, 41, 1); stroke: rgba(235, 193, 41, 1);"/>
    <path d="M 1083.84 610.56 Q 1098.72 607.2 1102.08 615.36 L 1104 630.72 Q 1100.197 644.197 1090.56 651.84 L 1018.56 725.76 L 1004.16 733.44 L 1008 719.04 L 1025.28 688.32 L 1059.84 634.56 L 1076.16 614.4 L 1083.84 610.56 Z M 1084 614 L 1084 616 L 1094 615 L 1084 614 Z M 1099 620 L 1098 631 L 1100 631 L 1099 620 Z M 1070 626 L 1068 631 L 1071 629 L 1070 626 Z M 1067 632 L 1064 636 L 1068 635 L 1067 632 Z M 1093 639 L 1091 644 L 1094 642 L 1093 639 Z M 1086 649 L 1083 652 L 1087 653 L 1086 649 Z M 1082 653 L 1079 658 L 1083 656 L 1082 653 Z M 1047 660 L 1044 665 L 1048 663 L 1047 660 Z M 1065 672 L 1058 681 L 1066 675 L 1065 672 Z M 1034 682 L 1031 686 L 1035 684 L 1034 682 Z M 1028 691 L 1025 696 L 1029 694 L 1028 691 Z M 1020 705 Q 1012 710 1014 722 L 1020 720 L 1024 714 L 1018 716 L 1021 708 L 1020 705 Z " style="fill: rgba(235, 193, 41, 1); stroke: rgba(235, 193, 41, 1);"/>
    <path d="M 425.28 704.64 Q 438.64 704.72 446.4 710.4 L 510.72 774.72 L 543.36 813.12 L 551.04 824.64 L 551.04 830.4 L 548.16 829.44 L 528.96 821.76 L 502.08 804.48 L 431.04 752.64 L 414.72 736.32 Q 409.509 730.011 410.88 717.12 L 419.52 706.56 L 425.28 704.64 Z M 427 708 L 427 710 L 432 709 L 427 708 Z M 421 710 L 421 712 L 426 711 L 421 710 Z M 433 710 L 433 712 L 440 711 L 433 710 Z M 418 714 L 415 717 L 416 728 L 419 717 L 418 714 Z M 446 716 L 448 720 L 451 719 L 446 716 Z M 418 728 L 417 732 L 419 732 L 418 728 Z M 466 733 L 468 736 Q 470 732 466 733 Z M 429 745 L 431 749 L 434 748 L 429 745 Z M 437 751 L 439 755 L 442 754 L 437 751 Z M 446 758 L 448 762 L 451 761 L 446 758 Z M 492 760 L 492 763 L 501 771 L 492 760 Z M 462 770 L 464 774 L 467 773 L 462 770 Z M 468 774 L 469 778 L 472 777 L 468 774 Z M 504 774 L 507 777 Q 508 772 504 774 Z M 516 785 L 515 788 L 522 794 L 516 785 Z M 494 793 L 496 797 L 499 796 L 494 793 Z M 529 801 L 528 804 L 532 805 L 529 801 Z M 514 806 L 516 810 L 520 809 L 514 806 Z M 537 810 L 538 818 L 532 819 L 541 822 L 537 810 Z " style="fill: rgba(235, 193, 41, 1); stroke: rgba(235, 193, 41, 1);"/>
    <path d="M 801.6 731.52 L 864.96 733.44 L 909.12 743.04 L 941.76 754.56 Q 1009.328 783.952 1054.08 836.16 L 1075.2 864.96 L 1067.52 859.2 L 1053.12 842.88 Q 1009.846 802.634 949.44 779.52 L 911.04 768 L 878.4 764.16 L 876.48 762.24 L 811.2 762.24 L 761.28 771.84 L 701.76 794.88 Q 648.592 823.312 610.56 866.88 Q 568.598 914.198 547.2 982.08 L 535.68 1043.52 L 535.68 1097.28 L 545.28 1147.2 L 543.36 1147.2 L 529.92 1106.88 L 524.16 1078.08 Q 527.52 1066.08 522.24 1062.72 L 522.24 1007.04 L 533.76 947.52 L 556.8 891.84 Q 585.188 839.588 628.8 802.56 Q 664.31 771.83 711.36 752.64 L 763.2 737.28 L 799.68 733.44 L 801.6 731.52 Z M 798 735 L 798 737 L 852 736 L 798 735 Z M 782 737 L 782 739 L 795 738 L 782 737 Z M 855 737 L 855 739 L 868 738 L 855 737 Z M 771 739 L 771 741 L 780 740 L 771 739 Z M 871 739 L 871 741 L 879 740 L 871 739 Z M 761 741 L 761 743 L 768 742 L 761 741 Z M 882 741 L 882 743 L 890 745 L 899 744 L 882 741 Z M 754 743 L 754 745 L 760 744 L 754 743 Z M 746 745 L 746 747 L 751 746 L 746 745 Z M 900 745 L 900 747 L 904 746 L 900 745 Z M 738 747 L 738 749 L 743 748 L 738 747 Z M 905 747 L 905 749 L 912 748 L 905 747 Z M 732 749 L 732 751 L 737 750 L 732 749 Z M 913 749 L 913 751 L 918 750 L 913 749 Z M 727 751 L 727 753 L 732 752 L 727 751 Z M 919 751 L 919 753 L 924 752 L 919 751 Z M 721 753 L 721 755 L 726 754 L 721 753 Z M 924 753 L 924 755 L 929 754 L 924 753 Z M 715 755 L 713 758 L 720 756 L 715 755 Z M 817 756 L 817 758 L 872 757 L 817 756 Z M 934 756 L 934 758 L 939 757 L 934 756 Z M 706 758 L 704 762 L 710 759 L 706 758 Z M 800 758 Q 797 763 788 760 L 788 762 L 812 759 L 800 758 Z M 875 758 L 875 760 L 887 759 L 875 758 Z M 888 760 L 888 762 L 899 761 L 888 760 Z M 779 762 L 779 764 L 787 763 L 779 762 Z M 900 762 L 900 764 L 908 763 L 900 762 Z M 771 764 L 771 766 L 778 765 L 771 764 Z M 911 764 L 911 766 L 918 765 L 911 764 Z M 763 766 L 763 768 L 770 767 L 763 766 Z M 919 766 L 919 768 L 924 767 L 919 766 Z M 756 768 L 750 770 L 750 772 L 762 769 L 756 768 Z M 926 768 L 926 770 L 931 769 L 926 768 Z M 932 770 L 932 772 L 937 771 L 932 770 Z M 744 772 L 744 774 L 749 773 L 744 772 Z M 938 772 L 938 774 L 943 773 L 938 772 Z M 675 774 L 673 778 L 678 775 L 675 774 Z M 738 774 L 738 776 L 743 775 L 738 774 Z M 944 774 L 944 776 L 948 775 L 944 774 Z M 949 776 L 949 778 L 954 777 L 949 776 Z M 729 778 L 729 780 L 733 779 L 729 778 Z M 978 778 L 980 781 L 983 780 L 978 778 Z M 665 780 L 663 783 L 668 780 L 665 780 Z M 959 780 L 959 781 L 964 780 L 959 780 Z M 719 781 L 719 783 L 724 782 L 719 781 Z M 972 785 L 972 787 L 977 786 L 972 785 Z M 990 785 L 992 789 L 995 788 L 990 785 Z M 654 787 L 652 791 L 657 788 L 654 787 Z M 982 789 L 984 793 L 1017 810 L 1021 809 L 996 789 L 999 797 L 982 789 Z M 646 793 L 644 797 L 649 794 L 646 793 Z M 640 797 L 636 803 L 643 798 L 640 797 Z M 688 797 L 686 801 L 691 798 L 688 797 Z M 629 806 L 623 814 L 632 807 L 629 806 Z M 661 814 L 660 818 L 664 815 L 661 814 Z M 602 833 L 599 838 L 603 836 L 602 833 Z M 631 839 L 621 851 L 634 840 L 631 839 Z M 588 849 L 588 852 L 591 850 L 588 849 Z M 587 852 L 584 857 L 588 855 L 587 852 Z M 617 852 L 614 857 L 618 855 L 617 852 Z M 577 866 L 574 871 L 578 869 L 577 866 Z M 604 868 L 601 873 L 605 871 L 604 868 Z M 569 877 L 566 880 L 567 885 L 570 880 L 569 877 Z M 596 877 L 593 882 L 597 880 L 596 877 Z M 587 891 L 584 896 L 588 894 L 587 891 Z M 583 897 L 580 901 L 584 900 L 583 897 Z M 577 906 L 574 911 L 578 909 L 577 906 Z M 550 914 L 549 919 L 551 919 L 550 914 Z M 571 916 L 568 921 L 572 919 L 571 916 Z M 546 924 L 545 928 L 547 928 L 546 924 Z M 544 929 L 541 934 L 542 941 L 545 934 L 544 929 Z M 540 941 L 540 946 L 541 946 L 540 941 Z M 558 941 L 557 946 L 559 946 L 558 941 Z M 539 947 L 538 951 L 540 951 L 539 947 Z M 554 950 L 551 955 L 552 960 L 555 955 L 554 950 Z M 537 952 L 536 959 L 538 959 L 537 952 Z M 535 960 L 534 967 L 536 967 L 535 960 Z M 550 960 L 549 965 L 551 965 L 550 960 Z M 548 966 L 547 971 L 549 971 L 548 966 Z M 533 968 L 532 974 L 534 974 L 533 968 Z M 531 977 L 530 986 L 532 986 L 531 977 Z M 544 977 L 543 982 L 545 982 L 544 977 Z M 542 983 L 541 990 L 543 990 L 542 983 Z M 529 989 L 528 1001 L 530 1001 L 529 989 Z M 540 991 L 540 997 L 541 997 L 540 991 Z M 539 998 L 538 1005 L 540 1005 L 539 998 Z M 527 1004 L 526 1057 L 528 1059 Q 525 1067 531 1066 L 530 1063 L 534 1045 L 533 1029 L 532 1042 L 529 1044 L 527 1004 Z M 537 1006 L 536 1015 L 538 1015 L 537 1006 Z M 535 1016 L 534 1026 L 536 1026 L 535 1016 Z " style="fill: rgba(235, 193, 41, 1); stroke: rgba(235, 193, 41, 1);"/>
    <path d="M 1164.48 737.28 Q 1179.06 735.18 1182.72 744 L 1182.72 753.6 L 1176 762.24 Q 1128.572 787.457 1071.36 800.64 L 1074.24 792.96 Q 1115.024 760.784 1164.48 737.28 Z M 1164 741 L 1164 743 L 1173 742 L 1164 741 Z M 1159 743 L 1159 745 L 1164 744 L 1159 743 Z M 1178 747 L 1177 752 L 1179 752 L 1178 747 Z M 1143 751 L 1141 755 L 1146 752 L 1143 751 Z M 1134 756 L 1132 760 L 1137 757 L 1134 756 Z M 1170 758 L 1168 762 L 1173 759 L 1170 758 Z M 1118 766 L 1116 770 L 1121 767 L 1118 766 Z M 1103 776 L 1101 780 L 1106 777 L 1103 776 Z M 1097 780 L 1090 785 Q 1081 789 1088 793 L 1103 789 L 1103 787 L 1093 789 L 1100 780 L 1097 780 Z M 1120 780 L 1120 781 L 1125 780 L 1120 780 Z M 1105 785 L 1105 787 L 1110 786 L 1105 785 Z " style="fill: rgba(235, 193, 41, 1); stroke: rgba(235, 193, 41, 1);"/>
    <path d="M 346.56 869.76 L 365.76 869.76 L 390.72 879.36 L 469.44 915.84 L 487.68 928.32 L 484.8 933.12 L 452.16 929.28 L 369.6 910.08 L 348.48 902.4 L 337.92 891.84 L 336 882.24 L 339.84 873.6 L 346.56 869.76 Z M 348 874 L 348 876 L 367 875 L 348 874 Z M 342 877 L 343 891 L 346 878 L 342 877 Z M 373 877 L 373 879 L 379 881 L 382 880 Q 381 876 373 877 Z M 383 881 L 383 883 L 388 882 L 383 881 Z M 393 885 L 393 887 L 397 886 L 393 885 Z M 345 891 L 344 894 L 348 897 L 345 891 Z M 406 891 L 410 895 L 415 894 L 406 891 Z M 356 900 L 356 902 L 361 901 L 356 900 Z M 427 900 L 427 902 L 432 901 L 427 900 Z M 362 902 L 362 904 L 369 903 L 362 902 Z M 370 904 L 370 906 L 374 905 L 370 904 Z M 377 906 L 377 908 L 382 907 L 377 906 Z M 383 908 L 383 910 L 390 909 L 383 908 Z M 391 910 L 391 912 L 397 911 L 391 910 Z M 448 910 L 452 914 L 455 913 L 448 910 Z M 398 912 L 398 914 L 405 913 L 398 912 Z M 406 914 L 406 916 L 413 915 L 406 914 Z M 414 916 L 414 918 L 420 917 L 414 916 Z M 423 918 L 423 920 L 430 919 L 423 918 Z M 431 920 L 431 922 L 438 921 L 431 920 Z M 468 920 L 468 923 Q 470 929 460 925 L 460 927 L 474 927 L 474 922 L 468 920 Z M 441 922 L 441 924 L 447 923 L 441 922 Z M 450 924 L 450 925 L 459 924 L 450 924 Z " style="fill: rgba(235, 193, 41, 1); stroke: rgba(235, 193, 41, 1);"/>
    <path d="M 409.92 1031.04 L 456 1031.04 L 457.92 1032.96 Q 473.952 1031.232 481.92 1034.88 Q 484.08 1040 479.04 1038.72 L 456 1048.32 L 417.6 1057.92 L 360 1069.44 L 344.64 1069.44 L 330.24 1058.88 Q 328.08 1042.32 338.88 1038.72 L 363.84 1032.96 L 408 1032.96 L 409.92 1031.04 Z M 393 1035 L 393 1037 L 458 1037 L 461 1040 L 458 1041 L 458 1043 L 464 1041 Q 469 1042 467 1037 L 460 1035 L 393 1035 Z M 356 1037 L 348 1039 L 348 1041 L 388 1038 L 356 1037 Z M 452 1043 L 452 1044 L 457 1044 L 452 1043 Z M 444 1044 L 444 1046 L 451 1045 L 444 1044 Z M 437 1046 L 437 1048 L 444 1047 L 437 1046 Z M 335 1048 L 334 1057 L 336 1057 L 335 1048 Z M 429 1048 L 421 1050 L 421 1052 L 436 1049 L 429 1048 Z M 414 1052 L 414 1054 L 420 1053 L 414 1052 Z M 404 1054 L 404 1056 L 411 1055 L 404 1054 Z M 395 1056 L 395 1058 L 403 1057 L 395 1056 Z M 385 1058 L 385 1060 L 394 1059 L 385 1058 Z M 375 1060 L 375 1062 L 384 1061 L 375 1060 Z M 341 1062 L 345 1066 L 361 1065 L 341 1062 Z M 363 1062 L 364 1066 L 374 1063 L 363 1062 Z " style="fill: rgba(235, 193, 41, 1); stroke: rgba(235, 193, 41, 1);"/>
    <path d="M 496.32 1127.04 L 504.96 1128 L 496.32 1138.56 L 425.28 1194.24 Q 418.88 1200.32 404.16 1198.08 Q 397.92 1194.72 397.44 1185.6 L 408 1171.2 L 496.32 1127.04 Z M 485 1135 L 476 1140 L 483 1140 L 480 1145 L 483 1146 L 490 1137 L 485 1135 Z M 464 1144 L 460 1146 L 458 1150 L 468 1145 L 464 1144 Z M 448 1152 L 444 1154 L 443 1158 L 453 1153 L 448 1152 Z M 471 1152 L 469 1156 L 474 1153 L 471 1152 Z M 462 1160 L 460 1164 L 465 1161 L 462 1160 Z M 420 1167 L 418 1171 L 422 1168 L 420 1167 Z M 408 1175 L 405 1180 L 411 1176 L 408 1175 Z M 404 1181 L 403 1192 L 407 1191 L 404 1181 Z M 429 1185 L 427 1188 L 432 1186 L 429 1185 Z M 420 1190 Q 417 1195 408 1192 L 408 1194 Q 420 1197 422 1191 L 420 1190 Z " style="fill: rgba(235, 193, 41, 1); stroke: rgba(235, 193, 41, 1);"/>
    <path d="M 1162.56 890.88 L 1191.36 890.88 L 1193.28 892.8 L 1211.52 892.8 L 1176.96 972.48 L 1165.44 1012.8 L 1161.6 1035.84 L 1146.24 1080 Q 1127.128 1122.328 1093.44 1150.08 Q 1064.48 1174.88 1024.32 1188.48 L 985.92 1198.08 L 947.52 1201.92 L 929.28 1220.16 L 920.64 1234.56 L 919.68 1224 L 931.2 1168.32 L 944.64 1126.08 L 973.44 1064.64 Q 1003.877 1012.517 1047.36 973.44 L 1094.4 939.84 Q 1092.96 935.52 1097.28 936.96 L 1113.6 926.4 L 1110.72 925.44 L 1083.84 938.88 L 1080.96 937.92 L 1076.16 944.64 L 1051.2 960 L 1000.32 1005.12 Q 966.665 1040.585 942.72 1085.76 L 921.6 1133.76 L 910.08 1177.92 L 907.2 1180.8 L 900.48 1158.72 L 898.56 1131.84 L 900.48 1129.92 L 900.48 1106.88 L 904.32 1095.36 L 904.32 1085.76 L 917.76 1039.68 Q 938.233 993.913 974.4 963.84 Q 1010.16 933.36 1056.96 913.92 L 1104.96 898.56 L 1137.6 894.72 L 1139.52 892.8 L 1160.64 892.8 L 1162.56 890.88 Z " style="fill: rgba(108, 177, 70, 1); stroke: rgba(108, 177, 70, 1);"/>
    <path d="M 603.84 1226.88 L 680.64 1226.88 L 682.56 1228.8 L 705.6 1228.8 L 707.52 1230.72 L 749.76 1234.56 L 805.44 1246.08 L 937.92 1284.48 L 1126.08 1349.76 L 1206.72 1372.8 L 1214.4 1372.8 L 1258.56 1384.32 L 1268.16 1384.32 L 1316.16 1393.92 L 1348.8 1395.84 L 1350.72 1397.76 L 1457.28 1400.64 L 1433.28 1405.44 L 1419.84 1405.44 L 1417.92 1407.36 L 1400.64 1407.36 L 1398.72 1409.28 L 1325.76 1411.2 L 1323.84 1409.28 L 1291.2 1409.28 L 1289.28 1407.36 L 1268.16 1407.36 L 1266.24 1405.44 L 1237.44 1403.52 L 1154.88 1388.16 L 1032 1357.44 L 1005.12 1347.84 L 970.56 1340.16 L 899.52 1319.04 L 772.8 1290.24 L 713.28 1282.56 L 711.36 1280.64 L 697.92 1280.64 L 696 1278.72 L 678.72 1278.72 L 676.8 1276.8 L 592.32 1272.96 L 590.4 1274.88 L 544.32 1274.88 L 542.4 1276.8 L 505.92 1278.72 L 421.44 1294.08 L 350.4 1315.2 L 269.76 1349.76 L 271.68 1345.92 Q 333.169 1295.089 415.68 1265.28 L 463.68 1249.92 L 504 1240.32 L 559.68 1230.72 L 601.92 1228.8 L 603.84 1226.88 Z " style="fill: rgba(108, 177, 70, 1); stroke: rgba(108, 177, 70, 1);"/>
    <path d="M 555.84 1292.16 L 651.84 1292.16 L 653.76 1294.08 L 674.88 1294.08 L 676.8 1296 L 692.16 1296 L 694.08 1297.92 L 732.48 1301.76 L 855.36 1328.64 L 1116.48 1405.44 L 1200.96 1426.56 L 1260.48 1438.08 L 1300.8 1441.92 L 1302.72 1443.84 L 1320 1443.84 L 1321.92 1445.76 L 1344.96 1445.76 L 1346.88 1447.68 L 1421.76 1447.68 L 1423.68 1445.76 L 1446.72 1445.76 L 1448.64 1443.84 L 1490.88 1440 L 1546.56 1428.48 L 1609.92 1409.28 L 1679.04 1380.48 L 1679.04 1382.4 L 1594.56 1428.48 L 1552.32 1445.76 L 1490.88 1464.96 L 1444.8 1474.56 L 1417.92 1476.48 L 1416 1478.4 L 1396.8 1478.4 L 1394.88 1480.32 L 1300.8 1480.32 L 1298.88 1478.4 L 1247.04 1474.56 L 1164.48 1459.2 L 1055.04 1430.4 L 841.92 1365.12 L 717.12 1334.4 L 672.96 1326.72 L 661.44 1326.72 L 659.52 1324.8 L 626.88 1322.88 L 624.96 1320.96 L 603.84 1320.96 L 601.92 1319.04 L 505.92 1319.04 L 504 1320.96 L 480.96 1320.96 L 479.04 1322.88 L 459.84 1322.88 L 457.92 1324.8 L 417.6 1328.64 L 335.04 1345.92 L 335.04 1344 L 388.8 1324.8 L 452.16 1307.52 L 504 1297.92 L 532.8 1296 L 534.72 1294.08 L 553.92 1294.08 L 555.84 1292.16 Z " style="fill: rgba(108, 177, 70, 1); stroke: rgba(108, 177, 70, 1);"/>
  </g>
</svg>